<svg id="Layer_1" data-name="Layer 1" xmlns="http://www.w3.org/2000/svg" viewBox="0 0 223.15 225.93"><defs><style>.cls-1{fill:#5e4019;}.cls-2{fill:#7a5222;}</style></defs><title>brown</title><path class="cls-1" d="M24.9,158.9s-7.1,25.5,10.2,25.7,10.7-25.7,10.7-25.7H24.9Z" transform="translate(35.41 41.13)"/><path class="cls-1" d="M99.8,159.1s-7.1,25.5,10.2,25.7,10.7-25.7,10.7-25.7H99.8Z" transform="translate(35.41 41.13)"/><path class="cls-1" d="M21,54.6s-56.2,34.3-46.6,49.1c9.6,14.6,48.1-28.2,48.1-28.2Z" transform="translate(35.41 41.13)"/><path class="cls-1" d="M124.9,79.7l1.5-20.9" transform="translate(35.41 41.13)"/><path class="cls-2" d="M72.4,47.1c51.4,0.8,54.4,10,58.8,15.5,4.4,5.2,21.5,95.5-2.7,102-23.8,6.5-98.9,5.2-114.8-2.7C-2.2,153.7,8.2,69,20.3,59,29.3,51.3,46.3,46.7,72.4,47.1Z" transform="translate(35.41 41.13)"/><path class="cls-1" d="M123.8,77s38.5,42.9,48.1,28.2-46.6-49.1-46.6-49.1" transform="translate(35.41 41.13)"/><path class="cls-1" d="M8,51.7S-6.8,68.4-1.6,71.8c5,3.3,14.8-7.3,14.8-7.3Z" transform="translate(35.41 41.13)"/><path class="cls-1" d="M46.5,43.9S68,50,65.3,55.4c-2.9,5.4-16.5.8-16.5,0.8Z" transform="translate(35.41 41.13)"/><path class="cls-1" d="M36.9,60.7s10.2,12.1,16.3,7.9-6.3-15.1-6.3-15.1Z" transform="translate(35.41 41.13)"/><path class="cls-1" d="M23.3,58.8s2.3,17.6,10.5,17.6c8.2-.2,3.3-18,3.3-18Z" transform="translate(35.41 41.13)"/><path class="cls-1" d="M25.6,63.2s-4.4,15.3-11.5,14-0.6-16.3-.6-16.3Z" transform="translate(35.41 41.13)"/><path class="cls-1" d="M15.7,43.9s-16.1,13.2-9,18.6c6.1,4.6,12.8,4.4,24,1.9S61.4,51.6,55.8,47.7c-6.9-4.8-23.4-9-23.4-9Z" transform="translate(35.41 41.13)"/><path class="cls-2" d="M-34.9,14.5c-4.4-24.9,20.5-50.8,46-54.8C41.2-44.9,68.8-29.9,73.4-5c4.4,24.9,5.6,45.2-46,54.8C-23.6,59.4-30.5,39.3-34.9,14.5Z" transform="translate(35.41 41.13)"/><path class="cls-1" d="M100.2,46.4S78.9,53.1,81.6,58.5c2.5,5.4,16.5,1.3,16.5,1.3Z" transform="translate(35.41 41.13)"/><path class="cls-1" d="M137.2,59.6S152.7,75.9,147.4,79,133,71.1,133,71.1Z" transform="translate(35.41 41.13)"/><path class="cls-1" d="M120.1,69s2.5,15.7,9.8,15.3,2.3-16.1,2.3-16.1Z" transform="translate(35.41 41.13)"/><path class="cls-1" d="M109.6,60.2s-7.1,16.3,0,20.5c7.1,4,12.1-13.8,12.1-13.8Z" transform="translate(35.41 41.13)"/><path class="cls-1" d="M109.4,65.5S97.9,76.4,92.3,71.6s7.9-14.2,7.9-14.2Z" transform="translate(35.41 41.13)"/><path class="cls-1" d="M110.9,43.7S90.4,46.6,93.5,55c2.7,7.1,8.8,10.5,19.4,14,10.9,3.8,33,5,30.1-1.3-3.3-7.7-15.3-19.9-15.3-19.9Z" transform="translate(35.41 41.13)"/><path class="cls-2" d="M82.6-7.5c9-23.6,43.7-32.8,67.7-23C178.5-19,194.2,8.4,185.2,31.8c-9,23.6-18.4,41.6-67.7,23C69.3,36.6,73.7,15.9,82.6-7.5Z" transform="translate(35.41 41.13)"/></svg>