<svg id="Reptol" xmlns="http://www.w3.org/2000/svg" viewBox="0 0 116.71 78.84"><defs><style>.cls-1{fill:#febc1e;}.cls-1,.cls-2,.cls-3{fill-rule:evenodd;}.cls-2{fill:#316d0a;}.cls-3{fill:#448b15;}</style></defs><title>green-winged</title><g id="feet"><path class="cls-1" d="M532.28,901.57c-4-.87-3.25-2.78-4.21-0.28-0.72,1.86-.53,4.72,4.38,5.79a5.77,5.77,0,0,0,3-.07,5.46,5.46,0,0,0,4.07-4s-1.13-.19-3.81-0.53C534.77,902.19,533.6,901.86,532.28,901.57Zm31.77-.28c-1-2.5-.22-0.59-4.21.28-1.32.29-2.48,0.61-3.45,0.92-2.67.33-3.81,0.53-3.81,0.53a5.46,5.46,0,0,0,4.07,4,5.77,5.77,0,0,0,3,.07C564.58,906,564.77,903.15,564.05,901.29Z" transform="translate(-487.71 -828.41)"/></g><g id="wings"><path class="cls-2" d="M604.42,848.48c0.31-17.55-27.7-20.92-28.45-19.9s5.65,10.34-1.14,20.94c-4.35,4.43.59,6.79,0.59,6.79a20.43,20.43,0,0,1,5.14-6.07c3-2.13,8.06,2.62,8.06,2.62s1.11-2.84.25-8.33c3.29-.37,7.33,5.43,7.33,5.43a18.59,18.59,0,0,0-1-8.82C596.24,840.86,603.81,844.6,604.42,848.48Zm-88.25-19.9c-0.75-1-28.76,2.35-28.45,19.9,0.61-3.88,8.18-7.62,9.23-7.34a18.59,18.59,0,0,0-1,8.82s4-5.8,7.33-5.43c-0.86,5.49.25,8.33,0.25,8.33s5-4.75,8.06-2.62a20.43,20.43,0,0,1,5.14,6.07s4.94-2.36.59-6.79C510.51,838.91,516.91,829.59,516.16,828.58Z" transform="translate(-487.71 -828.41)"/></g><g id="body"><path class="cls-3" d="M546.06,829.82c-23,0-39,36.81-31.5,59.06s55.31,20.47,63-.79S569.09,829.82,546.06,829.82Z" transform="translate(-487.71 -828.41)"/></g></svg>