<svg id="Layer_1" data-name="Layer 1" xmlns="http://www.w3.org/2000/svg" viewBox="0 0 179.94 144.1"><defs><style>.cls-1{fill:#293171;}.cls-2{fill:#2b388f;}</style></defs><title>indigo</title><path class="cls-1" d="M11.8,62.8S-18.1,75.1-14.7,84.1s28.9-2.7,28.9-2.7Z" transform="translate(14.97 -3)"/><path class="cls-1" d="M138.2,62.8s29.9,12.3,26.5,21.3-28.9-2.7-28.9-2.7Z" transform="translate(14.97 -3)"/><path class="cls-1" d="M68.1,115.9s1.2,22.5-2.5,26.5-31.8,8.3-32.1-2.2,13.9-7.4,13.9-7.4l1.2-18.3Z" transform="translate(14.97 -3)"/><path class="cls-1" d="M85,116.2s-1.2,22.5,2.5,26.5,31.8,8.3,32.1-2.2-13.9-7.4-13.9-7.4l-1.2-18.3Z" transform="translate(14.97 -3)"/><path class="cls-2" d="M75.7,3c31.3,0,55.4.3,60.3,11.8s14,88.4,0,96.5c-13.5,7.8-27,7.8-59.5,8.6s-47.8.3-62-9.5c-11.8-8.2-9.5-91.2.8-99.3C25.8,3,75.7,3,75.7,3Z" transform="translate(14.97 -3)"/></svg>