<svg id="Layer_1" data-name="Layer 1" xmlns="http://www.w3.org/2000/svg" viewBox="0 0 179.89 235.75"><defs><style>.cls-1{fill:#f79f37;}.cls-2{fill:#faaf40;}</style></defs><title>orange</title><path class="cls-1" d="M44.6,135.6s-7.8,56.3,11.2,56.7,11.7-56.7,11.7-56.7H44.6Z" transform="translate(14.94 42.85)"/><path class="cls-1" d="M80.7,136.2s-7.8,56.3,11.2,56.7,11.7-56.7,11.7-56.7H80.7Z" transform="translate(14.94 42.85)"/><path class="cls-1" d="M17.4,48.9S-23.8,68.3-13.2,84.6C-2.8,100.6,19,71.7,19,71.7Z" transform="translate(14.94 42.85)"/><path class="cls-1" d="M132.6,48.9s41.2,19.4,30.6,35.7c-10.5,16-32.2-12.8-32.2-12.8Z" transform="translate(14.94 42.85)"/><path class="cls-2" d="M73.9-42.8c48.3,1.1,51,15.6,55.1,24,4.1,8.2,20.1,148.4-2.5,158.5-22.4,10.1-92.6,8.2-107.5-4.1C4.1,123,13.9-8.8,25.1-24.3,33.4-36.2,49.4-43.5,73.9-42.8Z" transform="translate(14.94 42.85)"/></svg>