<svg id="Layer_1" data-name="Layer 1" xmlns="http://www.w3.org/2000/svg" viewBox="0 0 180.08 194"><defs><style>.cls-1{fill:#139a8d;}.cls-2{fill:#00a69c;}</style></defs><title>teal</title><path class="cls-1" d="M40.7,123.8s-29.4,21.6-22.4,28.6c6.8,7,26.2-6.6,26.2-6.6Z" transform="translate(14.94 22.04)"/><path class="cls-1" d="M105,124.4s32.4,17.2,26,24.8-26.6-4.6-26.6-4.6Z" transform="translate(14.94 22.04)"/><path class="cls-1" d="M83.6,147.8s12.2,22.8,23.2,18.4S102,140,102,140Z" transform="translate(14.94 22.04)"/><path class="cls-1" d="M62.7,140.2S60.3,169,73.3,171.8c13,2.6,11.6-27.6,11.6-27.6Z" transform="translate(14.94 22.04)"/><path class="cls-1" d="M64.9,148.2S52.7,171,41.7,166.6s4.8-26.2,4.8-26.2Z" transform="translate(14.94 22.04)"/><path class="cls-1" d="M55.7,113.8s-30.2,15.4-20.8,26.6c8,9.6,19,11.4,37.6,11.4s53.6-9.6,46-17.8c-9.4-10.2-34-22.8-34-22.8Z" transform="translate(14.94 22.04)"/><path class="cls-2" d="M-14.7,49.4C-13.1,8.2,35.7-24.5,78-21.9c49.6,3,88.5,36.8,87.1,78.1-1.6,41.2-6.6,74.1-92.7,71.2C-12.3,124.6-16.3,90.6-14.7,49.4Z" transform="translate(14.94 22.04)"/></svg>