<svg id="Layer_1" data-name="Layer 1" xmlns="http://www.w3.org/2000/svg" viewBox="0 0 181.05 219.02"><defs><style>.cls-1{fill:#f7f7f7;}.cls-1,.cls-2{stroke:#000;stroke-miterlimit:10;}.cls-2{fill:#fff;}</style></defs><title>white</title><path class="cls-1" d="M20.8,76S-19,82.6-14.7,95.5s36.1,2.3,36.1,2.3Z" transform="translate(15.52 34.5)"/><path class="cls-1" d="M129.2,78.5S169,85.1,164.7,98s-36.1,2.3-36.1,2.3Z" transform="translate(15.52 34.5)"/><path class="cls-1" d="M44.4,183.6c7.4,3.9,23.2-20.5,23.2-20.5l-19.9-8S34.5,178.3,44.4,183.6Z" transform="translate(15.52 34.5)"/><path class="cls-1" d="M109.3,183.6c-7.4,3.9-23.2-20.5-23.2-20.5l19.9-8S119.4,178.3,109.3,183.6Z" transform="translate(15.52 34.5)"/><path class="cls-2" d="M125.7-23.1s-15.6-2.9-15,12.9c0.8,15.6,32.8,76,32,105.9s-27.1,81.1-76,75.3c-49.1-5.7-55.6-59.7-54-84.6C15.5,46.7,81.6-69.9,125.7-23.1Z" transform="translate(15.52 34.5)"/></svg>