<svg id="Layer_1" data-name="Layer 1" xmlns="http://www.w3.org/2000/svg" viewBox="0 0 179.9 226.04"><defs><style>.cls-1{fill:#fde500;}</style></defs><title>yellow</title><path class="cls-1" d="M76.3-38.2c61.3,0.7,73.4,84.7,73.4,84.7s-2.9,0-12.6-4c0,0,10.4,25.9,17.2,35.6l-11.9-.7s10.8,35.6,15.5,40l-9.1-.7s11.5,25.2,16.1,29.2l-8.6,3.5s8.6,15.5,6.9,23.4-27.4,16.6-38.9,14.8-28.7-11.9-40.7-11.9-35.2,9.7-47.8,7.5-24-17-32-14.2S-15,175.9-15,175.9s8.6-21.7,13.7-24.5l-9.7-5.1S1.6,129.7,8.5,117.1l-10.8,1.1S9.2,94.8,12.5,79.7H1.6S14.9,53.8,17.1,45.4L5.6,46.5C5.3,46.5,16.2-38.8,76.3-38.2Z" transform="translate(15 38.2)"/></svg>