<svg id="Layer_1" data-name="Layer 1" xmlns="http://www.w3.org/2000/svg" viewBox="0 0 71.6 30.51"><defs><style>.cls-1{fill:none;}.cls-2{fill:#f2f2f2;}.cls-3{fill:#3b2314;}.cls-4{fill:#fff;}</style></defs><title>eyes5</title><line class="cls-1" y1="11.73" x2="25.1" y2="11.73"/><polygon points="0 12.73 0 10.53 25.1 10.53 25.1 12.73 0 12.73"/><circle cx="17.2" cy="16.43" r="4.7"/><line class="cls-1" x1="71.6" y1="11.73" x2="46.5" y2="11.73"/><polygon points="71.6 12.73 71.6 10.53 46.5 10.53 46.5 12.73 71.6 12.73"/><circle cx="54.4" cy="16.43" r="4.7"/><circle class="cls-2" cx="60.12" cy="40.08" r="15.2" transform="translate(-10.77 43.12) rotate(-56.33)"/><circle class="cls-2" cx="19.81" cy="39.98" r="15.2" transform="translate(-23.04 -7.09) rotate(-33.67)"/><circle class="cls-3" cx="23.23" cy="41.89" r="7.7" transform="translate(-28.6 22.12) rotate(-66.99)"/><path class="cls-4" d="M21.8,35.1l1,1.3s-3,.8-3.7,3.3L17.6,39C17.2,39,18.4,35.6,21.8,35.1Z" transform="translate(-4.2 -24.77)"/><path class="cls-4" d="M16.7,40l1.8,1a4.72,4.72,0,0,0-.3,1.7l-2-.2C16.4,42.5,16.1,41,16.7,40Z" transform="translate(-4.2 -24.77)"/><circle class="cls-3" cx="56.29" cy="41.99" r="7.7" transform="translate(-16.14 0.57) rotate(-23.01)"/><path class="cls-4" d="M57.9,35.1l-1,1.3s3,0.8,3.7,3.3l1.5-.8C62.4,39,61.1,35.6,57.9,35.1Z" transform="translate(-4.2 -24.77)"/><path class="cls-4" d="M62.8,40L61,41a4.72,4.72,0,0,1,.3,1.7l2-.2A6.69,6.69,0,0,0,62.8,40Z" transform="translate(-4.2 -24.77)"/></svg>