<svg id="Layer_1" data-name="Layer 1" xmlns="http://www.w3.org/2000/svg" viewBox="0 0 64.5 10.8"><defs><style>.cls-1{fill:#1a1a1a;}</style></defs><title>eyes3</title><path class="cls-1" d="M10.7,45.1h0Zm-3-.6a19,19,0,0,1,2.1-4.7h0a10.53,10.53,0,0,1,8.7-4.9h0.4a10.87,10.87,0,0,1,7.9,4.7h0a16.41,16.41,0,0,1,2.3,4.2h0l-3,1.1a7,7,0,0,1-.4-1.1h0a11.05,11.05,0,0,0-1.5-2.3h0a8.07,8.07,0,0,0-5.5-3.4H18.5c-4.5,0-6.6,3.8-7.4,6.2h0c-0.2.6-.4,1.1-0.4,1.1h0l-3-.9h0Z" transform="translate(-7.7 -34.6)"/><path class="cls-1" d="M68.7,44a8.91,8.91,0,0,0-1.3-2.6h0a7.31,7.31,0,0,0-6.2-3.6H61c-3.4,0-6,3.6-6.8,5.7h0c-0.2.6-.4,1.1-0.4,1.1h0l-3-1.1a13.23,13.23,0,0,1,2.3-4.2h0A10.31,10.31,0,0,1,61,34.6h0.4a10.39,10.39,0,0,1,8.7,4.9h0a12.17,12.17,0,0,1,2.1,4.7h0l-3,.9h0a2.07,2.07,0,0,1-.5-1.1h0Z" transform="translate(-7.7 -34.6)"/></svg>