<svg id="Layer_1" data-name="Layer 1" xmlns="http://www.w3.org/2000/svg" viewBox="0 0 70.11 76.68"><defs><style>.cls-1{fill:#f2f2f2;}.cls-2{fill:#3b2314;}.cls-3{fill:#fff;}.cls-4{fill:none;}</style></defs><title>eyes6</title><circle class="cls-1" cx="61.62" cy="42.43" r="11.6" transform="translate(-19.06 66.39) rotate(-56.33)"/><circle class="cls-1" cx="30.79" cy="42.31" r="11.6" transform="translate(-29.49 20.37) rotate(-33.67)"/><circle class="cls-2" cx="33.46" cy="43.8" r="5.9" transform="translate(-31.13 53.68) rotate(-66.99)"/><path class="cls-3" d="M32.3,38.6l0.8,1a4.09,4.09,0,0,0-2.8,2.6l-1.2-.6C28.9,41.6,29.8,39,32.3,38.6Z" transform="translate(-11.2 -3.79)"/><path class="cls-3" d="M28.5,42.3l1.4,0.8a2.71,2.71,0,0,0-.3,1.3l-1.5-.1A5.35,5.35,0,0,1,28.5,42.3Z" transform="translate(-11.2 -3.79)"/><circle class="cls-2" cx="58.71" cy="43.91" r="5.9" transform="translate(-23.69 22.65) rotate(-23.01)"/><path class="cls-3" d="M60,38.6l-0.8,1A4.09,4.09,0,0,1,62,42.2l1.2-.6C63.4,41.6,62.4,39,60,38.6Z" transform="translate(-11.2 -3.79)"/><path class="cls-3" d="M63.7,42.3l-1.4.8a2.71,2.71,0,0,1,.3,1.3l1.5-.1A5.35,5.35,0,0,0,63.7,42.3Z" transform="translate(-11.2 -3.79)"/><line class="cls-4" x1="2.9" y1="66.21" x2="8.3" y2="54.11"/><polygon points="3.4 66.41 2.3 65.91 7.8 53.81 8.8 54.31 3.4 66.41"/><circle cx="20.12" cy="62.67" r="2.5" transform="translate(-56.5 51.63) rotate(-65.88)"/><circle class="cls-1" cx="19.2" cy="63.2" r="8" transform="translate(-21.41 0.26) rotate(-9.54)"/><circle class="cls-2" cx="20.92" cy="61.96" r="4.1" transform="translate(-47.76 26.99) rotate(-42.86)"/><path class="cls-3" d="M17.3,61.2l0.9-.2a3.17,3.17,0,0,0,.8,2.5l-0.7.5C18.1,64.2,16.8,62.9,17.3,61.2Z" transform="translate(-11.2 -3.79)"/><path class="cls-3" d="M18.5,64.7l0.9-.7a3,3,0,0,0,.7.5l-0.5.9A3.15,3.15,0,0,1,18.5,64.7Z" transform="translate(-11.2 -3.79)"/><line class="cls-4" x1="57" y1="66.21" x2="62.5" y2="54.11"/><polygon points="57.5 66.41 56.5 65.91 61.9 53.81 62.9 54.31 57.5 66.41"/><circle cx="74.24" cy="62.7" r="2.5" transform="translate(-24.52 101.03) rotate(-65.88)"/><circle class="cls-1" cx="73.3" cy="63.2" r="8" transform="translate(-20.66 9.23) rotate(-9.54)"/><circle class="cls-2" cx="75.03" cy="61.98" r="4.1" transform="translate(-33.32 63.8) rotate(-42.86)"/><path class="cls-3" d="M71.4,61.2l0.9-.2a3.17,3.17,0,0,0,.8,2.5l-0.7.5C72.3,64.2,70.9,62.9,71.4,61.2Z" transform="translate(-11.2 -3.79)"/><path class="cls-3" d="M72.6,64.7l0.9-.7a3,3,0,0,0,.7.5l-0.5.9A3.15,3.15,0,0,1,72.6,64.7Z" transform="translate(-11.2 -3.79)"/><line class="cls-4" x1="55.2" y1="9.61" x2="55.2" y2="20.51"/><polygon points="54.7 9.61 55.7 9.61 55.7 20.51 54.7 20.51 54.7 9.61"/><circle cx="53.1" cy="17.11" r="2"/><circle class="cls-1" cx="64.82" cy="20.22" r="6.6" transform="translate(-11.53 35.53) rotate(-33.67)"/><circle class="cls-2" cx="64" cy="21.68" r="3.3" transform="translate(7.83 68.32) rotate(-66.99)"/><path class="cls-3" d="M66.9,21l-0.6.4a2.58,2.58,0,0,0-1.4-1.6l0.4-.7A2.57,2.57,0,0,1,66.9,21Z" transform="translate(-11.2 -3.79)"/><path class="cls-3" d="M64.8,18.9l-0.4.8a2.44,2.44,0,0,0-.7-0.1l0.1-.9A1.53,1.53,0,0,1,64.8,18.9Z" transform="translate(-11.2 -3.79)"/><line class="cls-4" x1="27.2" y1="50.71" x2="43.3" y2="66.71"/><polygon points="26.6 51.31 28 49.91 44.1 66.01 42.7 67.41 26.6 51.31"/><circle cx="46.49" cy="68.48" r="4.2" transform="translate(-46.01 49.14) rotate(-45)"/><circle class="cls-1" cx="46.19" cy="66.67" r="13.8" transform="translate(-39.45 95.07) rotate(-78.67)"/><circle class="cls-2" cx="47.2" cy="70.19" r="7" transform="translate(-34.04 18.98) rotate(-21.99)"/><path class="cls-3" d="M50.5,64.9l-0.2,1.5s-2.5-1.4-4.5-.2l-0.4-1.5C45.2,64.4,48.1,63,50.5,64.9Z" transform="translate(-11.2 -3.79)"/><path class="cls-3" d="M44.2,64.8l0.5,1.8a3.75,3.75,0,0,0-1.3.9L42.3,66C42.4,66.1,43.2,65,44.2,64.8Z" transform="translate(-11.2 -3.79)"/><line class="cls-4" x1="39.9" y1="13.11" x2="31.1" y2="13.11"/><polygon points="39.9 13.41 39.9 12.61 31.1 12.61 31.1 13.41 39.9 13.41"/><circle cx="33.8" cy="14.71" r="1.7"/><circle class="cls-1" cx="45.56" cy="18.08" r="5.4" transform="translate(-5.95 42.18) rotate(-56.33)"/><circle class="cls-2" cx="44.2" cy="18.81" r="2.7" transform="translate(-15.03 14.98) rotate(-23.01)"/><path class="cls-3" d="M44.8,16.4l-0.4.5a1.9,1.9,0,0,1,1.3,1.2l0.5-.3C46.4,17.7,45.9,16.6,44.8,16.4Z" transform="translate(-11.2 -3.79)"/><path class="cls-3" d="M46.5,18.1l-0.6.4a1.45,1.45,0,0,1,.1.6l0.7-.1A2.31,2.31,0,0,0,46.5,18.1Z" transform="translate(-11.2 -3.79)"/><line class="cls-4" x1="12.1" y1="22.61" x2="20.5" y2="19.81"/><polygon points="12 22.31 12.3 23.01 20.7 20.21 20.4 19.51 12 22.31"/><circle cx="28.59" cy="22.89" r="1.7" transform="translate(-17.03 6.58) rotate(-18.7)"/><circle class="cls-1" cx="28.22" cy="23.47" r="5.4" transform="translate(-12.94 40.88) rotate(-75.02)"/><circle class="cls-2" cx="29.22" cy="22.43" r="2.7" transform="translate(-18.71 21.33) rotate(-41.71)"/><path class="cls-3" d="M29.5,24.9l0.2-.6a1.82,1.82,0,0,1-1.6-.7l-0.4.4C27.5,24.1,28.4,25.1,29.5,24.9Z" transform="translate(-11.2 -3.79)"/><path class="cls-3" d="M27.3,23.8l0.5-.5a1.41,1.41,0,0,1-.3-0.5l-0.6.2A1.79,1.79,0,0,0,27.3,23.8Z" transform="translate(-11.2 -3.79)"/><line class="cls-4" x1="38.7" y1="8.41" x2="40.8" y2="7.71"/><polygon points="38.6 8.31 38.7 8.51 40.9 7.81 40.8 7.61 38.6 8.31"/><circle cx="51.2" cy="11.3" r="0.4" transform="translate(-12.12 13.22) rotate(-18.7)"/><circle class="cls-1" cx="51.15" cy="11.47" r="1.4" transform="translate(15.66 54.13) rotate(-75.02)"/><circle class="cls-2" cx="51.41" cy="11.18" r="0.7" transform="translate(-5.6 33.25) rotate(-41.71)"/><path class="cls-3" d="M51.4,11.8V11.7a0.48,0.48,0,0,1-.4-0.2v0.1C50.9,11.6,51.1,11.9,51.4,11.8Z" transform="translate(-11.2 -3.79)"/><path class="cls-3" d="M50.9,11.5l0.1-.1-0.1-.1-0.2.1C50.8,11.3,50.8,11.5,50.9,11.5Z" transform="translate(-11.2 -3.79)"/><line class="cls-4" x1="37.5" y1="2.31" x2="32.6" y2="2.31"/><polygon points="37.5 2.51 37.5 2.01 32.6 2.01 32.6 2.51 37.5 2.51"/><circle cx="34.1" cy="3.21" r="0.9"/><circle class="cls-1" cx="45.62" cy="6.79" r="3" transform="translate(3.48 37.2) rotate(-56.33)"/><circle class="cls-2" cx="44.91" cy="7.18" r="1.5" transform="translate(-10.43 14.33) rotate(-23.01)"/><path class="cls-3" d="M45.2,5.8L45,6.1a1.1,1.1,0,0,1,.7.7L46,6.6A1,1,0,0,0,45.2,5.8Z" transform="translate(-11.2 -3.79)"/><path class="cls-3" d="M46.1,6.8L45.8,7a0.44,0.44,0,0,1,.1.3h0.4A1.23,1.23,0,0,1,46.1,6.8Z" transform="translate(-11.2 -3.79)"/><line class="cls-4" x1="25.6" y1="15.61" x2="25.6" y2="10.71"/><polygon points="25.4 15.61 25.8 15.61 25.8 10.71 25.4 10.71 25.4 15.61"/><circle cx="24.6" cy="12.21" r="0.9"/><circle class="cls-1" cx="36.05" cy="16.29" r="3" transform="translate(-8.69 33.47) rotate(-56.33)"/><circle class="cls-2" cx="35.7" cy="15.59" r="1.5" transform="translate(-14.45 11.4) rotate(-23.01)"/><path class="cls-3" d="M37,15.9l-0.3-.2a1.1,1.1,0,0,1-.7.7l0.2,0.3A0.88,0.88,0,0,0,37,15.9Z" transform="translate(-11.2 -3.79)"/><path class="cls-3" d="M36.1,16.9l-0.2-.4a0.44,0.44,0,0,1-.3.1V17A1.34,1.34,0,0,0,36.1,16.9Z" transform="translate(-11.2 -3.79)"/><line class="cls-4" x1="30.2" y1="21.41" x2="25.9" y2="23.91"/><polygon points="30.3 21.61 30.1 21.21 25.8 23.71 26 24.01 30.3 21.61"/><circle cx="38.91" cy="27.7" r="0.9" transform="translate(-19.85 19.52) rotate(-30.19)"/><circle class="cls-1" cx="39.1" cy="27.32" r="3" transform="translate(-1.74 60.89) rotate(-86.51)"/><circle class="cls-2" cx="38.63" cy="28.08" r="1.5" transform="translate(-18.19 38.4) rotate(-53.2)"/><path class="cls-3" d="M38.2,26.7V27a1,1,0,0,1,1,.2l0.2-.3A1.68,1.68,0,0,0,38.2,26.7Z" transform="translate(-11.2 -3.79)"/><path class="cls-3" d="M39.5,27.1l-0.2.4a1.24,1.24,0,0,1,.2.3l0.3-.2A0.68,0.68,0,0,0,39.5,27.1Z" transform="translate(-11.2 -3.79)"/><line class="cls-4" x1="45" y1="22.61" x2="40" y2="22.61"/><polygon points="45 22.81 45 22.31 40 22.31 40 22.81 45 22.81"/><circle cx="41.6" cy="23.51" r="0.9"/><circle class="cls-1" cx="53.11" cy="27.09" r="3" transform="translate(-10.08 52.47) rotate(-56.33)"/><circle class="cls-2" cx="52.31" cy="27.51" r="1.5" transform="translate(-17.79 18.85) rotate(-23.01)"/><path class="cls-3" d="M52.7,26.1l-0.2.3a1.1,1.1,0,0,1,.7.7l0.3-.2A1.16,1.16,0,0,0,52.7,26.1Z" transform="translate(-11.2 -3.79)"/><path class="cls-3" d="M53.6,27.1l-0.4.2a0.44,0.44,0,0,1,.1.3h0.4A1.34,1.34,0,0,0,53.6,27.1Z" transform="translate(-11.2 -3.79)"/><line class="cls-4" x1="31.8" y1="27.91" x2="34.7" y2="31.91"/><polygon points="31.9 27.81 31.6 28.11 34.5 32.01 34.9 31.81 31.9 27.81"/><circle cx="45.71" cy="33.91" r="0.9" transform="translate(-22.4 30.23) rotate(-36.69)"/><circle class="cls-1" cx="45.4" cy="33.8" r="3" transform="translate(-12.91 -1.36) rotate(-3.01)"/><circle class="cls-2" cx="46.16" cy="34.21" r="1.5" transform="translate(-17.86 53) rotate(-59.7)"/><path class="cls-3" d="M44.9,34.7h0.3a1.23,1.23,0,0,1,.1-1L45,33.6C44.9,33.5,44.6,34.1,44.9,34.7Z" transform="translate(-11.2 -3.79)"/><path class="cls-3" d="M45.1,33.4l0.4,0.2,0.2-.2L45.4,33A1.87,1.87,0,0,0,45.1,33.4Z" transform="translate(-11.2 -3.79)"/></svg>