<svg id="Layer_1" data-name="Layer 1" xmlns="http://www.w3.org/2000/svg" viewBox="0 0 30.44 58.27"><defs><style>.cls-1{fill:#0b95c0;}</style></defs><title>bodies-icon</title><path class="cls-1" d="M763.57,190.58c-3.83-11.48-5.51-29.51-13.42-29.51S738.62,177,735.85,188.8c-2.46,10.44-1.54,16.66,3.91,19.54a8.5,8.5,0,0,0-.33,1.93c0,1.79.89,7.16,1.79,8s6.26,1.79,6.26,0-2.68-2.68-1.79-6.26a13.13,13.13,0,0,0,.32-2,37.07,37.07,0,0,0,3.85.21,12.85,12.85,0,0,0,.3,1.79c0.89,3.58-1.79,4.47-1.79,6.26s5.37,0.89,6.26,0,1.79-6.26,1.79-8a4.77,4.77,0,0,0-.07-0.71C765.18,207.23,766.56,199.53,763.57,190.58Z" transform="translate(-734.56 -161.07)"/></svg>