<svg id="Layer_1" data-name="Layer 1" xmlns="http://www.w3.org/2000/svg" viewBox="0 0 78.5 14.56"><defs><style>.cls-1{fill:#dcf8ff;}.cls-2{fill:#0b95c0;}</style></defs><title>extras-icon</title><path class="cls-1" d="M750.5,539.33s11,6.67,17.56,6.67S790,536,790,536" transform="translate(-711.5 -536)"/><path class="cls-2" d="M790,536s-1.7.71-4.29,1.67-6,2.15-9.5,3a39.83,39.83,0,0,1-4.95,1,12.93,12.93,0,0,1-2,.09h-0.43a1.59,1.59,0,0,1-.32-0.08c-0.2-.07-0.34-0.07-0.56-0.15l-0.58-.21-0.59-.25c-0.36-.14-0.71-0.33-1-0.47s-0.5-.24-0.66-0.34l-0.24-.13a14.88,14.88,0,0,0-3.44-2c-4.35-1.82-9.18-1.64-10.91,1.19s0.81,7.57,6.3,9.88a13.52,13.52,0,0,0,5.14,1.08l0.38,0.05c0.24,0,.63.07,1.12,0.11s1.07,0.09,1.81.09c0.37,0,.73,0,1.16,0l1.37-.1a14,14,0,0,0,1.56-.27c0.26-.06.56-0.11,0.79-0.19l0.7-.25a21.52,21.52,0,0,0,2.71-1.19,46.49,46.49,0,0,0,4.91-3.06c3.14-2.19,6-4.58,8.1-6.4S790,536,790,536Z" transform="translate(-711.5 -536)"/><path class="cls-1" d="M751,539.33S740,546,733.44,546s-21.94-10-21.94-10" transform="translate(-711.5 -536)"/><path class="cls-2" d="M711.5,536s1.34,1.27,3.44,3.09,5,4.21,8.1,6.4a46.49,46.49,0,0,0,4.91,3.06,21.52,21.52,0,0,0,2.71,1.19l0.7,0.25c0.23,0.08.53,0.13,0.79,0.19a14,14,0,0,0,1.56.27l1.37,0.1c0.43,0,.79,0,1.16,0,0.74,0,1.32-.05,1.81-0.09s0.88-.07,1.12-0.11l0.38-.05a13.52,13.52,0,0,0,5.14-1.08c5.49-2.31,8-7.08,6.3-9.88s-6.56-3-10.91-1.19a14.88,14.88,0,0,0-3.44,2l-0.24.13c-0.16.1-.38,0.2-0.66,0.34s-0.64.32-1,.47l-0.59.25-0.58.21c-0.22.09-.36,0.09-0.56,0.15a1.59,1.59,0,0,1-.32.08h-0.43a12.93,12.93,0,0,1-2-.09,39.83,39.83,0,0,1-4.95-1c-3.45-.88-6.92-2.09-9.5-3S711.5,536,711.5,536Z" transform="translate(-711.5 -536)"/></svg>