<svg id="Layer_1" data-name="Layer 1" xmlns="http://www.w3.org/2000/svg" viewBox="0 0 45 46"><defs><style>.cls-1{fill:#fff;}.cls-2{fill:none;stroke:#0b95c0;stroke-miterlimit:10;stroke-width:2px;}.cls-3{fill:#0b95c0;}</style></defs><title>eyes-icon</title><path class="cls-1" d="M758.58,292c-4.93,0-9.1,4.49-10.5,13.43-1.4-8.94-5.57-13.43-10.5-13.43-6.08,0-11,9.85-11,22s4.92,22,11,22c4.93,0,9.1-2.49,10.5-11.43,1.4,8.94,5.57,11.43,10.5,11.43,6.08,0,11-9.85,11-22S764.66,292,758.58,292Z" transform="translate(-725.58 -291)"/><path class="cls-2" d="M758.58,292c-4.93,0-9.1,4.49-10.5,13.43-1.4-8.94-5.57-13.43-10.5-13.43-6.08,0-11,9.85-11,22s4.92,22,11,22c4.93,0,9.1-2.49,10.5-11.43,1.4,8.94,5.57,11.43,10.5,11.43,6.08,0,11-9.85,11-22S764.66,292,758.58,292Z" transform="translate(-725.58 -291)"/><circle class="cls-3" cx="13" cy="26" r="9"/><circle class="cls-3" cx="32" cy="26" r="9"/></svg>