<?xml version="1.0" encoding="utf-8"?>
<!-- Generator: Adobe Illustrator 19.2.1, SVG Export Plug-In . SVG Version: 6.00 Build 0)  -->
<svg version="1.1" id="Layer_1" xmlns="http://www.w3.org/2000/svg" xmlns:xlink="http://www.w3.org/1999/xlink" x="0px" y="0px"
	 viewBox="0 0 200 200" style="enable-background:new 0 0 200 200;" xml:space="preserve">
<g>
	<path d="M151.3,41.3c-2.5-8.2-8.7-18.8-12.2-23.3c-1.5-1.9-17.6-3.1-29.7-1.9c-5,0.5-8.7,2.6-9,4.6c-0.3-2-4-4.1-9-4.6
		c-12.1-1.2-28.2,0.1-29.7,1.9c-3.6,4.5-9.7,15.1-12.2,23.3c-0.4,1.6,3.5,4.6,9.6,4.8c3.4,0.1,5.2-8,19.2-12.7
		c10.2-3.5,21.5-2.5,22.2-4.8c0.6,2.3,11.9,1.4,22.2,4.8c13.9,4.7,15.7,12.8,19.2,12.7C147.8,45.9,151.7,42.9,151.3,41.3z"/>
	<path d="M189.7,113.2c-9.6-67.9-14.2-83.1-17.5-96.3c-3.5-14-11.5-11.4-11,2.3c0.7,15.7-2.6,21.8-6.2,25.1
		c-4.4,3.9-8.3,5.4-9.2,8.7c-2.5,10.1-7,15.4-18.7,13.4c-8.9-1.5-10.3-10.1-15.5-12.1c-4.9-1.9-18.1-1.9-22.9,0
		c-5.2,2-6.5,10.6-15.5,12.1C61.7,68.3,57.2,63.1,54.7,53c-0.8-3.3-4.8-4.8-9.2-8.7c-3.6-3.3-6.9-9.4-6.2-25.1
		c0.6-13.7-7.5-16.3-11-2.3c-3.3,13.2-7.8,28.4-17.5,96.3c-6.4,45.2,36.7,82.4,89.4,82.4v0c0,0,0,0,0,0c0,0,0,0,0,0v0
		C153,195.6,196.1,158.4,189.7,113.2z"/>
</g>
</svg>
