<?xml version="1.0" encoding="utf-8"?>
<!-- Generator: Adobe Illustrator 19.2.1, SVG Export Plug-In . SVG Version: 6.00 Build 0)  -->
<svg version="1.1" id="Layer_1" xmlns="http://www.w3.org/2000/svg" xmlns:xlink="http://www.w3.org/1999/xlink" x="0px" y="0px"
	 viewBox="0 0 200 160" style="enable-background:new 0 0 200 160;" xml:space="preserve">
<g>
	<path d="M192.7,41.2c-0.6,4.7-2.7,6.2-9.1,6.2c-8.2,0-18.4-3.8-30.2-15.1c-14.1-13.5-19.5-21.5-36.6-21.5c-4.3,0-9.2,1.5-12.4,3.6
		c-1.8,1.2-3.1,2.6-4.1,4.2c-1-1.5-2.3-2.9-4.1-4.2c-3.1-2.1-8.1-3.6-12.4-3.6c-17.1,0-22.5,7.9-36.6,21.5
		c-11.8,11.3-22,15.2-30.2,15.1c-6.4,0-8.5-1.5-9.1-6.2c-0.6-5-2.7-3.2-2,3.8c0.3,3.7,4.2,7.1,7.8,9.2c24.3,14.3,60.1,9.8,75.8-1.5
		c4.6-3.3,8.3-6.3,10.7-10.5c2.4,4.3,6.2,7.2,10.7,10.5c15.7,11.2,51.5,15.8,75.8,1.5c3.6-2.1,7.5-5.6,7.8-9.2
		C195.4,38,193.3,36.2,192.7,41.2z"/>
	<path d="M100.5,91.2L100.5,91.2c0,0-0.1,0-0.1,0c0,0-0.1,0-0.1,0v0C85.2,91.4,68.4,110,68,114c-0.5,4.1-0.9,15.1,3.2,26.1
		c3.9,10.5,27.2,9.3,29.2,9.2c1.9,0.1,25.2,1.4,29.2-9.2c4.1-11,3.7-22,3.2-26.1C132.3,110,115.5,91.4,100.5,91.2z"/>
</g>
</svg>
