<?xml version="1.0" encoding="utf-8"?>
<!-- Generator: Adobe Illustrator 19.2.1, SVG Export Plug-In . SVG Version: 6.00 Build 0)  -->
<svg version="1.1" id="Layer_1" xmlns="http://www.w3.org/2000/svg" xmlns:xlink="http://www.w3.org/1999/xlink" x="0px" y="0px"
	 viewBox="0 0 960 560" style="enable-background:new 0 0 960 560;" xml:space="preserve">
<style type="text/css">
	.st0{fill:#754C24;}
	.st1{fill:#CFC1B3;}
	.st2{fill:#42210B;}
	.st3{fill:#613A14;}
	.st4{fill:#603913;}
	.st5{fill:#FFFFFF;}
</style>
<g>
	<g>
		<path class="st0" d="M552.5,63.5c2.1,0,4.2,0,6.2,0c0.6,0.3,1.3,0.6,1.9,0.9c0.5,0.8,1,1.6,1.6,2.3c1.2,1.6,2.8,2.9,3.7,4.6
			c2.6,4.9,5.4,9.8,7.5,15c4.8,11.9,9,24.1,13.7,36c3.9,9.9,7.7,19.8,12.1,29.5c4.9,11,10.9,21.5,18.1,31.2
			c6.3,8.4,13,16.3,20.3,23.8c5.2,5.3,10.5,10.5,16.2,15.3c3.9,3.3,7.7,6.7,11.6,10c3.7,3.1,7.6,6,11.4,9.1c4.9,4,9.7,8.1,14.5,12
			c0.5,0.4,1.3,0.5,2,0.7c1.6,1.8,3.2,3.8,5,5.5c6.7,6.2,10.9,13.9,13.1,22.7c1.9,7.3,2.9,14.7,3.5,22.2c1,12,0.8,24.1,0.1,36.1
			c-1,0-1.9,0-2.9,0.1c-3,0.4-6,0.9-9,1.3c-4.1,0.6-8.2,1.2-12.3,1.8c-4.3,0.6-8.5,1.1-12.8,1.6c-3.4,0.4-6.8,0.9-10.2,1.3
			c-3.4,0.4-6.8,0.8-10.2,1.1c-3.4,0.4-6.8,0.7-10.2,1.1c-3.6,0.4-7.1,0.9-10.7,1.3c-4,0.4-7.9,0.7-11.9,1.1
			c-4.1,0.4-8.2,0.9-12.3,1.3c-5.3,0.5-10.6,1-15.9,1.4c-6.4,0.5-12.7,1-19.1,1.5c-4.6,0.3-9.2,0.7-13.8,1c-5.3,0.3-10.7,0.7-16,1
			c-6.8,0.4-13.7,0.7-20.6,1c-4.5,0.2-8.9,0.4-13.4,0.5c-7.9,0.2-15.8,0.4-23.7,0.5c-7.3,0-14.7-0.2-22-0.4
			c-7.8-0.2-15.7-0.3-23.5-0.5c-4.4-0.1-8.8-0.3-13.2-0.5c-3.7-0.1-7.3-0.3-11-0.5c-5.9-0.3-11.8-0.6-17.7-1
			c-4.9-0.3-9.9-0.6-14.8-1c-6.4-0.5-12.7-0.9-19.1-1.4c-5.6-0.4-11.1-1-16.7-1.4c-6-0.5-12.1-1-18.1-1.5c-1.9-0.2-3.8-0.4-5.7-0.6
			c-4-0.4-8.1-0.9-12.1-1.3c-3.4-0.4-6.8-0.7-10.2-1.1c-3.3-0.4-6.6-0.8-10-1.2c-4.6-0.5-9.2-1-13.8-1.6c-4.5-0.6-9-1.2-13.5-1.8
			c-4.3-0.6-8.5-1.2-12.8-1.8c-3.1-0.4-6.2-0.7-9.2-1.1c-0.2-6.8-0.5-13.6-0.6-20.3c-0.1-11.8,0.8-23.4,3.4-35
			c2.1-9.4,5.7-17.9,12.9-24.6c2-1.8,3.7-3.9,5.5-5.9c0.6-0.3,1.2-0.4,1.7-0.8c5.3-4.3,10.5-8.5,15.7-12.8
			c5.8-4.8,11.6-9.5,17.3-14.4c4.5-3.8,8.9-7.8,13.2-11.8c3.2-3,6.2-6.1,9.3-9.3c2.1-2.2,4.2-4.4,6.2-6.7c3.9-4.6,7.8-9.2,11.6-14
			c5.8-7.4,10.8-15.4,15.1-23.8c5.2-10.1,9.7-20.5,13.7-31.1c3.6-9.6,7.3-19.3,10.9-28.9c3.4-9,6.8-18.1,11.3-26.6
			c1.8-3.3,3.8-6.5,6.7-9c0.3-0.3,0.5-0.8,0.7-1.2c0.5-0.3,0.9-0.5,1.4-0.8c2.6,0,5.1,0,7.7,0c1.6,0.2,3.2,0.3,4.8,0.5
			c1.9,0.2,3.8,0.5,5.7,0.7c10,1.4,19.6,4.4,29,8.2c6.5,2.6,12.9,5.2,19.4,7.5c7.6,2.7,15.4,2.7,23,0c5.7-2,11.4-4.2,17-6.5
			c12-5,24.4-8.7,37.4-9.9C548.6,63.8,550.6,63.6,552.5,63.5z"/>
		<path class="st0" d="M712.8,368.8c3.8-3.8,7.8-7.5,11.5-11.5c15.9-17.4,31.6-35,47.6-52.4c6.7-7.4,13.7-14.6,20.8-21.6
			c3.2-3.2,6.9-6,10.6-8.6c2.2-1.6,4.8-2.8,7.4-3.9c3.9-1.6,7.6-1.1,11.3,1c7.7,4.5,12.7,11.1,15.7,19.3c1.8,5.1,2.9,10.3,3,15.7
			c0,3.7,0,7.4,0,11.1c-0.1,1.4,0,2.9-0.2,4.3c-1,8.6-2.8,17-5.6,25.2c-10.3,30.3-27.4,55.4-54.9,72.8
			c-15.9,10.1-32.5,18.8-49.7,26.3c-31.1,13.7-63.3,24.1-96.2,32.1c-28.9,7.1-58.2,12.3-87.8,15.2c-13.7,1.4-27.4,2.1-41.1,3
			c-3.1,0-6.2,0-9.3,0.1c-0.3,0-0.6,0.2-0.8,0.4c-9.4,0-18.9,0-28.3,0c-0.2-0.1-0.4-0.3-0.6-0.4c-3-0.1-6-0.1-9-0.1
			c-9.6-0.6-19.2-1-28.7-1.9c-13.2-1.3-26.4-2.7-39.5-4.5c-19.1-2.6-38-6.4-56.7-10.8c-33.3-7.9-65.7-18.2-97.2-31.7
			c-18.2-7.8-35.8-16.6-52.4-27.4c-9.9-6.4-19.3-13.5-27-22.5c-19-22.3-30.7-47.9-34.2-77.1c-0.2-1.8-0.5-3.6-0.7-5.4
			c0-3,0-6.1,0-9.1c0.5-2.2,1-4.5,1.4-6.7c1-5.4,2.6-10.5,5.4-15.3c3.1-5.4,7.4-9.6,12.8-12.7c3.4-2,7-2.4,10.6-1
			c2.9,1.2,5.7,2.6,8.3,4.3c6,4,11.3,8.9,16.2,14.2c11.8,12.8,23.5,25.7,35.2,38.7c12.6,14,25.4,27.9,38.7,41.3c1,1,2.1,1.9,3.1,2.9
			c8.3,8.4,17,16.4,26,24c4.6,3.9,9.3,7.7,14,11.6c0.6,0.5,1.4,0.7,2.1,1c0.4,0.5,0.6,1.2,1.1,1.5c2.8,2.2,5.6,4.5,8.6,6.5
			c6.7,4.6,13.4,9.2,20.2,13.8c9.2,6.1,18.7,11.6,28.6,16.6c7.1,3.6,14.3,6.7,21.6,9.9c11.3,5,23.1,8.9,35.1,12.1
			c13.8,3.7,27.8,6.5,42,7.8c4.8,0.4,9.7,1,14.5,1.4c4.7,0.3,9.4,0.4,14.1,0.5c1.8,0,3.6-0.3,5.5-0.4c4.9-0.2,9.9-0.3,14.8-0.5
			c2.8-0.1,5.6-0.2,8.3-0.5c4.5-0.5,9-1.1,13.5-1.9c7.4-1.3,14.8-2.5,22.1-4.2c10.9-2.5,21.6-5.6,32.1-9.7c8-3.1,16-6.4,23.9-9.9
			c5.8-2.6,11.4-5.5,16.9-8.6c7.8-4.4,15.6-8.8,23-13.7c8.1-5.3,15.8-11.1,23.7-16.7c1.5-1.1,2.8-2.5,4.2-3.8
			c0.8-0.5,1.7-0.8,2.4-1.4c4.1-3.4,8.3-6.8,12.3-10.3c6.2-5.5,12.4-11.1,18.5-16.6c0.8-0.7,1.6-1.3,2.3-2.1c3-3,6.1-6.1,9.1-9.2
			C712.6,369,712.7,368.9,712.8,368.8C712.8,368.7,712.8,368.8,712.8,368.8z"/>
		<path class="st1" d="M841,317.9c-0.1,0-0.3,0-0.4,0c0-3.7,0-7.4,0-11.1c0.1,0,0.3,0,0.4,0C841,310.5,841,314.2,841,317.9z"/>
		<path class="st1" d="M505,496.9c-0.1,0.2-0.1,0.3,0,0.5c-3.4,0-6.7,0-10.1,0c0.3-0.1,0.6-0.4,0.8-0.4
			C498.8,497,501.9,497,505,496.9z"/>
		<path class="st1" d="M457,497.4c0-0.2,0-0.3,0-0.5c3,0,6,0.1,9,0.1c0.2,0,0.4,0.2,0.6,0.4C463.4,497.4,460.2,497.4,457,497.4z"/>
		<path class="st1" d="M121.2,320.8c-0.2,0-0.5-0.1-0.7-0.1c0-1.8,0-3.5,0-5.3C120.7,317.3,121,319.1,121.2,320.8z"/>
		<path class="st1" d="M546.7,63.9c0-0.1,0-0.3,0-0.5c1.9,0,3.8,0,5.8,0C550.6,63.6,548.6,63.8,546.7,63.9z"/>
		<path class="st1" d="M415.2,63.5c0,0.2,0,0.3,0,0.5c-1.6-0.2-3.2-0.3-4.8-0.5C412,63.5,413.6,63.5,415.2,63.5z"/>
		<path class="st2" d="M294.2,408.7c-0.7-0.3-1.5-0.6-2.1-1c-4.7-3.8-9.4-7.7-14-11.6c-9-7.6-17.7-15.6-26-24c-1-1-2.1-1.9-3.1-2.9
			c-0.1-1.2-0.1-2.4-0.2-3.5c-0.5-6-1.1-12-1.6-18.1c-0.2-2.4-0.3-4.8-0.4-7.1c3.1,0.4,6.2,0.7,9.2,1.1c4.3,0.6,8.5,1.2,12.8,1.8
			c4.5,0.6,9,1.2,13.5,1.8c4.6,0.6,9.2,1,13.8,1.6c3.3,0.4,6.6,0.8,10,1.2c3.4,0.4,6.8,0.8,10.2,1.1c4,0.4,8.1,0.9,12.1,1.3
			c1.9,0.2,3.8,0.4,5.7,0.6c6,0.5,12.1,1,18.1,1.5c5.6,0.5,11.1,1,16.7,1.4c6.4,0.5,12.7,1,19.1,1.4c4.9,0.4,9.9,0.7,14.8,1
			c5.9,0.3,11.8,0.7,17.7,1c3.7,0.2,7.3,0.3,11,0.5c4.4,0.2,8.8,0.4,13.2,0.5c7.8,0.2,15.6,0.3,23.5,0.5c7.3,0.1,14.7,0.4,22,0.4
			c7.9,0,15.8-0.3,23.7-0.5c4.5-0.1,8.9-0.3,13.4-0.5c6.9-0.3,13.7-0.6,20.6-1c5.3-0.3,10.7-0.6,16-1c4.6-0.3,9.2-0.6,13.8-1
			c6.4-0.5,12.7-0.9,19.1-1.5c5.3-0.4,10.6-0.9,15.9-1.4c4.1-0.4,8.2-0.9,12.3-1.3c4-0.4,7.9-0.7,11.9-1.1c3.6-0.4,7.1-0.9,10.7-1.3
			c3.4-0.4,6.8-0.7,10.2-1.1c3.4-0.4,6.8-0.7,10.2-1.1c3.4-0.4,6.8-0.9,10.2-1.3c4.3-0.5,8.5-1,12.8-1.6c4.1-0.5,8.2-1.2,12.3-1.8
			c3-0.4,6-0.9,9-1.3c0.9-0.1,1.9-0.1,2.9-0.1c-0.8,8.9-1.5,17.8-2.3,26.8c0,0.5,0.1,1,0.1,1.6c0,0,0-0.1,0-0.1
			c-0.1,0.1-0.3,0.2-0.4,0.4c-3,3.1-6.1,6.1-9.1,9.2c-0.7,0.7-1.5,1.4-2.3,2.1c-6.2,5.5-12.3,11.1-18.5,16.6
			c-4,3.5-8.2,6.9-12.3,10.3c-0.7,0.6-1.6,1-2.4,1.4c-2,0.3-4.1,0.6-6.1,0.9c-4.6,0.5-9.2,1-13.8,1.5c-5.5,0.6-10.9,1.3-16.3,1.9
			c-1.9,0.2-3.8,0.4-5.7,0.6c-3.7,0.4-7.4,0.9-11.1,1.3c-2.5,0.2-4.9,0.3-7.4,0.5c-1.9,0.2-3.8,0.3-5.7,0.5c-2.5,0.3-5,0.6-7.6,0.8
			c-2.9,0.2-5.7,0.3-8.6,0.5c-2.1,0.1-4.3,0.3-6.4,0.5c-5.3,0.5-10.6,1-15.9,1.4c-5.1,0.4-10.2,0.7-15.3,1c-6.8,0.4-13.5,0.7-20.3,1
			c-4.2,0.2-8.4,0.4-12.7,0.5c-7.7,0.2-15.5,0.5-23.2,0.4c-8.9,0-17.9,0.3-26.8-0.3c-8-0.6-16.1-0.4-24.2-0.6
			c-5.7-0.1-11.5-0.3-17.2-0.5c-0.2,0-0.5,0-0.7,0c-4.3-0.3-8.6-0.6-12.9-0.9c-3.7-0.2-7.5-0.3-11.2-0.5c-0.2,0-0.3,0-0.5,0
			c-3.3-0.3-6.6-0.6-10-0.9c-3.1-0.2-6.2-0.3-9.3-0.5c-2.1-0.1-4.1-0.3-6.2-0.5c-4.4-0.4-8.9-0.9-13.3-1.3c-4.3-0.4-8.6-0.7-12.8-1
			c-1.7-0.1-3.5-0.3-5.2-0.5c-3.8-0.4-7.6-0.9-11.4-1.3c-3.6-0.4-7.1-0.7-10.7-1.1c-4.7-0.6-9.3-1.2-14-1.8
			C301.6,409.6,297.9,409.1,294.2,408.7z"/>
		<path class="st3" d="M560.6,64.4c2.3,1.1,4.7,1.9,6.9,3.2c5.3,3.3,9.6,7.6,13.8,12.2c8.9,9.8,16.6,20.5,24,31.4
			c13.8,20.4,26.2,41.6,38.8,62.8c12.3,20.7,24.6,41.3,37.1,61.9c3.8,6.2,8,12.1,12,18.2c-0.7-0.2-1.4-0.3-2-0.7
			c-4.9-4-9.7-8.1-14.5-12c-3.8-3.1-7.6-6-11.4-9.1c-3.9-3.3-7.7-6.7-11.6-10c-5.7-4.8-11-10-16.2-15.3
			c-7.3-7.5-14.1-15.4-20.3-23.8c-7.3-9.7-13.2-20.2-18.1-31.2c-4.3-9.7-8.2-19.6-12.1-29.5c-4.7-12-9-24.1-13.7-36
			c-2.1-5.2-4.8-10.1-7.5-15c-0.9-1.7-2.5-3.1-3.7-4.6C561.6,66,561.2,65.2,560.6,64.4z"/>
		<path class="st3" d="M268.1,254.6c2.4-3.5,4.8-7,7.1-10.5c13.4-20.3,25.5-41.3,37.8-62.2c12.5-21.2,24.9-42.4,38.4-63
			c8.2-12.6,16.8-24.9,26.6-36.3c3.9-4.5,8-8.7,12.7-12.4c3.2-2.5,6.5-4.9,10.6-5.8c-0.2,0.4-0.4,0.9-0.7,1.2
			c-2.9,2.5-4.9,5.6-6.7,9c-4.6,8.5-7.9,17.6-11.3,26.6c-3.6,9.6-7.3,19.2-10.9,28.9c-4,10.6-8.5,21-13.7,31.1
			c-4.3,8.4-9.2,16.4-15.1,23.8c-3.7,4.8-7.6,9.4-11.6,14c-2,2.3-4.1,4.5-6.2,6.7c-3.1,3.1-6.1,6.3-9.3,9.3c-4.3,4-8.7,8-13.2,11.8
			c-5.7,4.9-11.5,9.6-17.3,14.4c-5.2,4.3-10.5,8.6-15.7,12.8C269.3,254.2,268.6,254.3,268.1,254.6z"/>
		<path class="st4" d="M294.2,408.7c3.7,0.5,7.4,0.9,11.1,1.4c4.7,0.6,9.3,1.2,14,1.8c3.6,0.4,7.1,0.7,10.7,1.1
			c3.8,0.4,7.6,0.9,11.4,1.3c1.7,0.2,3.5,0.4,5.2,0.5c4.3,0.4,8.6,0.6,12.8,1c4.4,0.4,8.9,0.9,13.3,1.3c2.1,0.2,4.1,0.4,6.2,0.5
			c3.1,0.2,6.2,0.3,9.3,0.5c3.3,0.2,6.7,0.6,10,0.9c0.2,0,0.3,0,0.5,0c3.7,0.2,7.5,0.3,11.2,0.5c4.3,0.3,8.6,0.6,12.9,0.9
			c0.2,0,0.5,0,0.7,0c5.7,0.2,11.5,0.4,17.2,0.5c8.1,0.2,16.1,0,24.2,0.6c8.9,0.6,17.9,0.3,26.8,0.3c7.7,0,15.5-0.3,23.2-0.4
			c4.2-0.1,8.4-0.3,12.7-0.5c6.8-0.3,13.5-0.6,20.3-1c5.1-0.3,10.2-0.6,15.3-1c5.3-0.4,10.6-0.9,15.9-1.4c2.1-0.2,4.3-0.4,6.4-0.5
			c2.9-0.2,5.7-0.3,8.6-0.5c2.5-0.2,5.1-0.6,7.6-0.8c1.9-0.2,3.8-0.4,5.7-0.5c2.5-0.2,4.9-0.3,7.4-0.5c3.7-0.4,7.4-0.9,11.1-1.3
			c1.9-0.2,3.8-0.4,5.7-0.6c5.4-0.6,10.9-1.3,16.3-1.9c4.6-0.5,9.2-1,13.8-1.5c2.1-0.2,4.1-0.6,6.1-0.9c-1.4,1.3-2.7,2.7-4.2,3.8
			c-7.8,5.6-15.6,11.4-23.7,16.7c-7.5,4.9-15.3,9.3-23,13.7c-5.5,3.1-11.1,6.1-16.9,8.6c-7.9,3.5-15.9,6.8-23.9,9.9
			c-10.4,4.1-21.2,7.3-32.1,9.7c-7.3,1.6-14.7,2.9-22.1,4.2c-4.5,0.8-9,1.3-13.5,1.9c-2.8,0.3-5.6,0.4-8.3,0.5
			c-4.9,0.2-9.9,0.3-14.8,0.5c-1.8,0.1-3.7,0.4-5.5,0.4c-4.7-0.1-9.4-0.2-14.1-0.5c-4.8-0.3-9.7-0.9-14.5-1.4
			c-14.2-1.3-28.2-4.1-42-7.8c-12-3.2-23.7-7.1-35.1-12.1c-7.2-3.2-14.5-6.3-21.6-9.9c-9.8-5-19.4-10.4-28.6-16.6
			c-6.8-4.5-13.5-9.1-20.2-13.8c-2.9-2-5.7-4.3-8.6-6.5C294.8,409.9,294.5,409.2,294.2,408.7z"/>
		<path class="st5" d="M712.4,369.1c0.1-0.1,0.3-0.2,0.4-0.4C712.7,368.9,712.6,369,712.4,369.1z"/>
	</g>
</g>
</svg>
