<svg id="Layer_1" data-name="Layer 1" xmlns="http://www.w3.org/2000/svg" viewBox="0 0 67.33 24.7"><defs><style>.cls-1{fill:#be1e2d;}.cls-2{opacity:0.5;}.cls-3{fill:#3b2314;}</style></defs><title>horns1</title><path class="cls-1" d="M21,36.4s1.8,7.9-4.8,11c0,0-20.6-4.9-13.3-24.7C2.9,22.6,10.4,40,21,36.4Z" transform="translate(-1.33 -22.7)"/><g class="cls-2"><path class="cls-3" d="M15.4,40.1a4.19,4.19,0,0,0,.5-2h0a4.14,4.14,0,0,0-.4-1.6l0.7,0.2a4.42,4.42,0,0,1,.2,1.5h0a4.93,4.93,0,0,1-.5,2.2h0l-0.5-.3h0Z" transform="translate(-1.33 -22.7)"/></g><g class="cls-2"><path class="cls-3" d="M13.2,39.2a4.19,4.19,0,0,0,.5-2h0a7.57,7.57,0,0,0-.2-1.6l0.6,0.3a2,2,0,0,1,.2,1.3h0a4.93,4.93,0,0,1-.5,2.2h0l-0.6-.2h0Z" transform="translate(-1.33 -22.7)"/></g><path class="cls-1" d="M49,36.4s-1.8,7.9,4.8,11c0,0,20.6-4.9,13.3-24.7C67,22.6,59.6,40,49,36.4Z" transform="translate(-1.33 -22.7)"/><g class="cls-2"><path class="cls-3" d="M54.6,40.1a4.19,4.19,0,0,1-.5-2h0a4.14,4.14,0,0,1,.4-1.6l-0.7.2a4.42,4.42,0,0,0-.2,1.5h0a4.93,4.93,0,0,0,.5,2.2h0l0.5-.3h0Z" transform="translate(-1.33 -22.7)"/></g><g class="cls-2"><path class="cls-3" d="M56.8,39.2a4.19,4.19,0,0,1-.5-2h0a7.57,7.57,0,0,1,.2-1.6l-0.6.3a2,2,0,0,0-.2,1.3h0a4.93,4.93,0,0,0,.5,2.2h0l0.6-.2h0Z" transform="translate(-1.33 -22.7)"/></g></svg>