<?xml version="1.0" encoding="utf-8"?>
<!-- Generator: Adobe Illustrator 19.2.1, SVG Export Plug-In . SVG Version: 6.00 Build 0)  -->
<svg version="1.1" id="Layer_1" xmlns="http://www.w3.org/2000/svg" xmlns:xlink="http://www.w3.org/1999/xlink" x="0px" y="0px"
	 viewBox="0 0 300 60" style="enable-background:new 0 0 300 60;" xml:space="preserve">
<g>
	<path d="M169.8,36.7c9.5-1.1,19.4-0.8,28.9-0.3c20.5,1.2,40.3,7.4,60.8,8.8c10.5,0.7,26.6-0.1,30.3-12.2
		c3.4-11.1-6.3-21.5-16.6-17.6c-1.5,0.5-2.8,1.3-4.1,2.2c-1.3,0.9-2.8-0.3-1.3-1.6c3.7-3.1,8.6-4.4,12.9-3.6
		c10.7,2.1,16.2,13.9,12.1,23.7C287.7,48.2,272.5,50.3,261,50c-13.3-0.4-26.5-3.2-39.6-5.3c-12.6-2-25.3-2.7-38.1-2.6
		c-6.1,0.1-12.2,0.5-18.3,1.2c-2.3,0.3-9.6,2.5-11.2,0.4C149,37.5,166.7,37,169.8,36.7z"/>
	<path d="M19.8,12.4c4.3-0.8,9.2,0.5,12.9,3.6c1.5,1.3,0,2.5-1.3,1.6c-1.3-0.9-2.6-1.7-4.1-2.2C17,11.5,7.4,21.9,10.8,33
		C14.5,45.1,30.6,45.9,41,45.2c20.5-1.4,40.3-7.6,60.8-8.8c9.6-0.5,19.4-0.8,28.9,0.3c3.1,0.2,20.8,0.7,16,7
		c-1.6,2.1-8.9-0.2-11.2-0.4c-6.1-0.7-12.2-1.1-18.3-1.2c-12.8-0.1-25.5,0.6-38.1,2.6c-13.1,2.1-26.3,4.9-39.6,5.3
		C28,50.3,12.8,48.2,7.8,36.1C3.6,26.3,9.1,14.5,19.8,12.4z"/>
</g>
</svg>
