<?xml version="1.0" encoding="utf-8"?>
<!-- Generator: Adobe Illustrator 19.2.1, SVG Export Plug-In . SVG Version: 6.00 Build 0)  -->
<svg version="1.1" id="Layer_1" xmlns="http://www.w3.org/2000/svg" xmlns:xlink="http://www.w3.org/1999/xlink" x="0px" y="0px"
	 viewBox="0 0 200 140" style="enable-background:new 0 0 200 140;" xml:space="preserve">
<path d="M195.1,114.1c-0.7-1.7-1.8-2.8-2.5-3.4c-0.4-0.3-1.2-0.8-1.2-0.8c-0.5-0.3-1.1-0.1-1.4,0.3c-0.3,0.5-0.2,1,0.3,1.3
	c0,0,0.7,0.5,1,0.7c0.5,0.5,1.2,1.3,1.7,2.6c0.4,1.3,0.4,3-0.2,4.8c-0.7,1.8-2,3.7-4,4.9c-2.4,1.4-5.7,1.1-7,0.9
	c-6.5-1-11.4-8.5-12.9-24.4c-0.4-4.2-0.3-9.1-0.9-15.5c-3-31.8-19.9-61.8-45.3-70.9c-5.5-2-13.6-4.9-19.4-1.6
	c-1.4,0.8-2.4,1.7-3.1,2.6c-0.7-0.9-1.7-1.8-3.1-2.6c-5.8-3.3-14-0.3-19.4,1.6c-25.5,9.1-42.4,39-45.3,70.9
	c-0.6,6.4-0.5,11.3-0.9,15.5c-1.5,15.9-6.4,23.4-12.9,24.4c-1.3,0.2-4.6,0.4-7-0.9c-2-1.2-3.3-3.1-4-4.9s-0.6-3.5-0.2-4.8
	s1.1-2.1,1.7-2.6c0.3-0.2,1-0.7,1-0.7c0.4-0.3,0.6-0.9,0.3-1.3c-0.3-0.5-0.9-0.6-1.4-0.3c0,0-0.8,0.5-1.2,0.8
	c-0.7,0.6-1.8,1.7-2.5,3.4c-0.7,1.7-0.9,4-0.2,6.4s2.3,4.9,4.8,6.7c1.2,0.9,4.9,2.6,9.8,1.9c3.6-0.5,7.2-2.4,9.4-5.3
	c2.4-3.2,4.6-8.4,5.1-10.3c1.1-3.8,2.1-8,3.1-14.5c0.2-1.6,0.6-3.5,1.1-5.7c2.4-11.4,7.8-30.1,27.7-41.5c3.5-2,12.8-5.4,23.2-6.6
	c6.9-0.8,7-0.5,8.4-1.6c1.2-0.9,2-2.1,2.6-3.6c0.6,1.5,1.4,2.7,2.6,3.6c1.4,1,1.4,0.8,8.4,1.6c10.4,1.2,19.7,4.6,23.2,6.6
	c20,11.5,25.3,30.2,27.7,41.5c0.5,2.2,0.8,4.1,1.1,5.7c1,6.5,2,10.8,3.1,14.5c0.5,1.9,2.7,7.1,5.1,10.3c2.2,2.9,5.7,4.8,9.4,5.3
	c4.9,0.6,8.5-1,9.8-1.9c2.6-1.8,4.1-4.3,4.8-6.7C196,118.2,195.8,115.8,195.1,114.1z"/>
</svg>
