<?xml version="1.0" encoding="utf-8"?>
<!-- Generator: Adobe Illustrator 19.2.1, SVG Export Plug-In . SVG Version: 6.00 Build 0)  -->
<svg version="1.1" id="Layer_1" xmlns="http://www.w3.org/2000/svg" xmlns:xlink="http://www.w3.org/1999/xlink" x="0px" y="0px"
	 viewBox="0 0 200 80" style="enable-background:new 0 0 200 80;" xml:space="preserve">
<path d="M194.8,61.4c-2.3-1.3-3.7-2.9-4.4-4.7c-2.8-7.1-7.4-14.2-12.5-20.1c-7.5-8.7-21-14-33-16.4c-21.2-4.3-38.2,0.1-45,9
	c-6.8-8.9-23.8-13.3-45-9c-12,2.4-25.5,7.7-33,16.4c-5.1,5.9-9.7,13-12.5,20.1c-0.7,1.8-2.1,3.5-4.4,4.7C8,62.3,14,60,15,59.3
	c0,1-0.9,1.7-1.9,2.3c-0.6,0.3,1.7,0.3,4-0.8c4.4-2.1,4.3-5.2,4.6-3.7c0.4,1.5-0.3,3.3-2.1,4.4c-0.6,0.4,2.5,0.1,4-0.9
	c4.3-3,4.3-6.3,5.5-5.2c1.5,1.4-1.2,4.9-3.6,5.9c-0.7,0.3,2.2,0.9,4.3,0c6.8-2.8,5.1-8.7,7-7.6c1.7,1-0.3,5.4-3.1,7.5
	c-0.8,0.6,3.5,0,5.6-1.5c4.6-3.2,3.9-8.2,5.1-7.3c1.7,1.4-0.1,6-2.6,8.1c-0.6,0.5,3.1,0.3,5.7-1.5c4.3-3,4.8-9.8,6.1-7.8
	c1.7,2.6-1.5,6.7-4.3,8.6c-1.1,0.8,4.6,0.9,7.2-0.8c4.6-3,7.5-12.7,7.7-9c0.1,3.8-2,7.3-5.5,9.7c-1.6,1.1,5.2,1.1,9.2-1.3
	c4.6-2.8,8-10.9,8.6-8.8c0.6,2.4-2.9,7-5.8,8.9c-2.1,1.3,6.1,1.7,10-0.7c4.2-2.6,8.1-10.1,8.9-6.8c0.8,3.2-2.8,5.7-5.6,7.6
	c-2.3,1.5,8.2,0.8,12-2c1.7-1.2,3-2.4,4.1-3.8c1.1,1.4,2.4,2.5,4.1,3.8c3.8,2.8,14.3,3.5,12,2c-2.8-1.8-6.3-4.3-5.6-7.6
	c0.8-3.3,4.7,4.2,8.9,6.8c3.9,2.5,12.1,2,10,0.7c-2.9-1.9-6.4-6.5-5.8-8.9c0.5-2.1,3.9,6.1,8.6,8.8c4,2.4,10.9,2.4,9.2,1.3
	c-3.5-2.4-5.6-5.9-5.5-9.7c0.1-3.7,3.1,6,7.7,9c2.6,1.7,8.4,1.6,7.2,0.8c-2.8-1.9-5.9-6-4.3-8.6c1.3-2.1,1.8,4.8,6.1,7.8
	c2.6,1.8,6.3,2,5.7,1.5c-2.5-2.1-4.3-6.7-2.6-8.1c1.2-1,0.5,4,5.1,7.3c2.1,1.5,6.4,2,5.6,1.5c-2.8-2.1-4.8-6.5-3.1-7.5
	c1.9-1.1,0.2,4.8,7,7.6c2.1,0.9,4.9,0.3,4.3,0c-2.4-1-5.1-4.5-3.6-5.9c1.1-1.1,1.2,2.2,5.5,5.2c1.5,1.1,4.6,1.3,4,0.9
	c-1.8-1.1-2.4-2.9-2.1-4.4c0.4-1.5,0.2,1.6,4.6,3.7c2.2,1,4.5,1.1,4,0.8c-1.1-0.6-2-1.4-1.9-2.3C186.1,60,192.1,62.3,194.8,61.4z"/>
</svg>
