<?xml version="1.0" encoding="utf-8"?>
<!-- Generator: Adobe Illustrator 19.2.1, SVG Export Plug-In . SVG Version: 6.00 Build 0)  -->
<svg version="1.1" id="Layer_1" xmlns="http://www.w3.org/2000/svg" xmlns:xlink="http://www.w3.org/1999/xlink" x="0px" y="0px"
	 viewBox="0 0 960 560" style="enable-background:new 0 0 960 560;" xml:space="preserve">
<style type="text/css">
	.st0{fill:#010101;}
	.st1{fill:#F9AF41;}
	.st2{fill:#FDFDFD;}
	.st3{fill:#FEFEFE;}
</style>
<g>
	<g>
		<path class="st0" d="M651.4,466.9c-0.3,0-0.6,0-1,0c-0.8-0.7-1.4-1.4-2.3-2c-7.4-4.8-15.4-8.4-23.7-11.5
			c-18.7-7.2-38.2-11.6-57.9-14.8c-16.3-2.6-32.7-4.3-49.1-5.2c-17-0.9-34-1.4-51.1-0.8c-12,0.4-24,0.9-35.9,1.8
			c-15.5,1.1-30.8,3.2-46.1,6.1c-15.2,2.9-30.1,6.6-44.6,12c-9.3,3.4-18.4,7.3-26.7,12.9c-1.5,1-2.9,1.3-4.7,0.9
			c-17.6-3.5-35.2-7.4-52.6-11.8c-23.1-5.9-45.9-12.6-68.1-21.1c-13.4-5.2-26.6-10.9-39-18.4c-6.6-4-12.8-8.4-18.2-14
			c-4.5-4.7-8-9.9-9.3-16.4c-1.1-2.8-0.3-5.6,0.1-8.4c0.8-5.5,2.6-10.7,5.2-15.6c5.3-10.3,12.8-18.9,21-27
			c11.5-11.4,24.3-21.3,37.4-30.7c18.6-13.3,38-25.4,57.4-37.5c12.4-7.8,25-15.2,36.6-24.2c16.9-13.1,33.6-26.4,50.3-39.7
			c22-17.6,44-35.1,66.9-51.6c14.9-10.7,30-21,46.1-29.7c8.5-4.6,17.2-8.8,26.6-11.4c6.3-1.8,12.7-2.6,19.2-1.1c4.5,1,9,2.3,13.3,4
			c11.1,4.2,21.4,10,31.5,16.2c18.8,11.5,36.8,24.4,54.2,37.9c24.7,19.2,49.1,38.8,73.6,58.2c13.5,10.7,27.1,21.5,41.7,30.7
			c14.6,9.2,29.3,18.3,43.8,27.6c18.1,11.6,35.9,23.6,52.6,37.4c10.2,8.4,19.9,17.4,28,27.9c5.4,7,10.1,14.4,12.5,23
			c0.4,1.5,0.8,3.1,1.2,4.6c0,2.8,0.1,5.6,0.1,8.4c-0.2,0.9-0.3,1.9-0.5,2.8c-1,4.4-3.3,8.1-6.1,11.6c-3.4,4.2-7.4,7.7-11.7,10.9
			c-8,5.9-16.7,10.7-25.6,15c-17.9,8.5-36.4,15-55.3,20.8c-29.3,9-59.1,16.2-89.3,21.9C651.8,466.5,651.6,466.8,651.4,466.9z
			 M494.4,353.4c1.4-1.9,1.7-3.7,1.9-5.5c0.3-2.2,0.3-4.5,0.6-6.7c0.1-0.5,0.5-1.4,0.9-1.4c0.6-0.1,1.3,0.2,1.9,0.6
			c0.4,0.3,0.6,0.9,1,1.3c1.9,2.3,3.8,4.7,5.9,7c0.8,0.9,1.8,1.8,3.3,1.9c0.2-0.5,0.5-0.9,0.6-1.3c0.2-2.4,0.4-4.8,0.4-7.2
			c0-1.3-0.2-2.6-0.1-3.8c0.1-1.3,1.3-1.9,2.4-1.1c0.5,0.4,0.9,0.9,1.3,1.4c1.5,1.5,3.1,3,4.7,4.4c0.7,0.6,1.6,0.9,2.8,1.5
			c0.3-1.5,0.8-2.7,0.7-3.8c-0.2-2.8-0.4-5.6-1.2-8.3c-1.4-4.9-3.2-9.7-4.8-14.5c-0.3-1-1-2,0.1-2.8c1.2-0.9,1.9,0.1,2.7,0.8
			c0.9,0.8,1.8,1.6,2.7,2.4c4.1,3.3,8.6,6.2,13.9,7.3c4.4,1,8.6,0.3,12.2-2.7c3.6-3,6.2-6.7,7.7-11.1c0.9-2.8,1.3-5.6,0.6-8.5
			c-0.6-2.9-1.3-5.8-2.1-8.6c-1-3.6-1.2-7.2,0.1-10.8c0.3-0.8,0.5-1.7,0.8-2.5c2.3-6.6,4.6-13.3,7.1-19.8c2.8-7.4,3.5-14.9,1.7-22.6
			c-1-4.6-2.4-9.1-4.7-13.4c-26.6,13.2-53.9,24.3-81.8,34.2c0.8,6.5-0.4,12.7-2.3,18.7c-2.1,6.9-5.1,13.4-10,18.9
			c-5.1,5.7-11.3,7.4-18.6,5.1c-3.8-1.2-7.2-3-10.4-5.3c-7.7-5.4-14.2-11.8-18.7-20.3c-4.7,0.9-9.3,1.7-14.2,2.6
			c1,2.8,2,5.4,2.7,8.1c0.5,1.9,0.9,4,0.7,5.9c-0.3,2.9-1.1,5.8-1.7,8.7c-0.8,3.7-1.9,7.4-2.4,11.2c-0.7,5.2,1.2,9.4,5.6,12.4
			c3.9,2.6,8.3,4.1,13,4.4c8.2,0.5,14.5-3.1,19.6-9.2c0.5-0.6,0.8-1.3,1.3-1.7c0.5-0.4,1.4-0.7,1.8-0.5c0.5,0.2,0.7,1.1,0.9,1.7
			c0.1,0.3-0.1,0.6-0.2,0.9c-0.9,6.7-1.6,13.4-1.1,20.1c0.1,1.7,0.5,3.5,1,5.2c0.2,0.8,0.9,1.4,1.7,2.6c0.7-1.8,1.3-3,1.6-4.3
			c0.5-2.4,0.9-4.9,1.3-7.3c0.2-1,0.4-1.8,1.6-1.7c1.1,0,1.4,0.8,1.5,1.8c0.1,1.8,0.2,3.5,0.5,5.3c0.5,2.9,1.2,5.8,1.9,8.6
			c0.3,1,0.7,2.1,1.9,2.6c1.5-1,2.3-2.5,2.9-4.1c1.2-3.6,2.3-7.3,3.4-11c0.2-0.5,0.2-1.1,0.5-1.6c0.6-1,2-1,2.5,0
			c0.2,0.4,0.3,0.9,0.3,1.4c0.2,1.8,0.2,3.7,0.6,5.5c0.7,3.3,1.4,6.5,2.3,9.8c0.3,1.1,0.9,2.2,2.1,2.7c1.6-1.3,2.3-1.9,3.1-4.5
			c1.2-3.5,2.1-7,3.2-10.5c0.3-1,0.2-2.4,1.8-2.4c1.6,0.1,1.4,1.5,1.6,2.5c0.6,2.7,1,5.5,1.8,8.2c0.4,1.3,1.1,2.6,1.9,4.3
			c0.7-1.2,1.3-1.8,1.6-2.6c0.6-1.8,1.2-3.6,1.6-5.5c0.4-1.8,0.7-3.6,0.9-5.4c0.1-0.9,0.6-1.5,1.5-1.5c1,0,1.4,0.6,1.5,1.6
			c0,0.4,0.1,0.8,0.1,1.2c0.4,2.4,0.8,4.9,1.3,7.3C493.3,350.8,493.9,352,494.4,353.4z M556.9,221.5c-0.2-0.5-0.2-0.6-0.3-0.8
			c-0.3-0.5-0.7-1.1-1.1-1.6c-6.1-8.7-14.3-15-23.8-19.6c-12.9-6.2-26.7-8.8-40.8-9.5c-10.9-0.6-21.9-0.4-32.8,1.3
			c-9.5,1.5-18.8,3.9-27.4,8.2c-16.2,8-27.3,20.3-32.1,37.9c-1.9,7-2.7,14.1-1.1,21.3c1.1,4.8,2.4,9.6,3.7,14.4
			c0.2,0.6,0.4,1.1,0.7,1.9c5.1-1,10.1-2,15.1-3c0.4-0.1,0.9-0.3,1.2-0.6c2.8-3.2,6.6-5.1,10.4-6.8c9.7-4.4,19.8-7.1,30.3-8.4
			c4.4-0.6,8.7-0.9,13.1-0.1c0.9,0.2,1.9-0.1,2.8-0.4c26-9.1,51.5-19.4,76.4-31.4C553.2,223.5,555,222.5,556.9,221.5z M514,342.8
			c0,1,0.1,1.6,0,2.2c-0.2,1.8-0.3,3.7-0.8,5.4c-0.9,3.2-3.3,4.2-6.1,2.3c-2-1.4-3.7-3.2-5.5-4.9c-0.6-0.6-1.1-1.3-1.9-2.1
			c-0.2,1.4-0.3,2.6-0.6,3.6c-0.5,1.8-1,3.8-1.9,5.4c-1.2,2.1-3.7,2.1-5.2,0.2c-0.6-0.7-1-1.7-1.4-2.5c-0.3-0.5-0.5-1.1-0.8-1.8
			c-0.5,1.2-0.8,2.1-1.2,2.9c-0.8,1.8-1.7,3.5-4,3.6c-2.3,0-3.3-1.7-4.1-3.5c-0.7-1.5-1.1-3-1.8-4.8c-0.5,1.3-0.8,2.2-1.2,3.2
			c-0.8,1.7-1.4,3.4-2.4,4.9c-2.7,4.2-6.3,3.9-8.6-0.5c-0.5-1.1-1-2.2-1.3-3.3c-0.5-1.8-0.9-3.6-1.5-5.9c-0.5,1.1-0.7,1.8-1.1,2.5
			c-1,1.9-1.8,4-3.1,5.6c-2.1,2.7-5.2,2.5-6.9-0.5c-0.9-1.6-1.4-3.5-2.1-5.3c-0.2-0.5-0.4-0.9-0.6-1.5c-0.3,0.6-0.5,1-0.7,1.3
			c-1.9,3.1-4.8,3.2-6.8,0.2c-0.7-1-1.2-2.3-1.5-3.5c-1-4.2-1.1-8.6-0.7-12.9c0.2-2.5,0.4-5,0.6-7.9c-6.8,6.6-14.5,9-23.6,7.5
			c-0.3,4.1-0.7,8,0.1,11.8c0.2,1.1,0.7,2.1,1.2,3.1c2.8,5.4,5.6,10.7,8.5,16.1c2.8,5.3,5.7,10.5,8.7,15.7c1.7,3,4.1,5.5,6.9,7.5
			c2.7,1.9,5.6,2.6,8.8,1.9c2.6-0.6,5.3-1.2,7.9-2c4.4-1.4,8.8-2.9,13.2-4.3c3.5-1.1,7-1.5,10.6-0.6c1.5,0.4,2.9,0.7,4.4,1.2
			c4.7,1.4,9.5,2.8,14.2,4.3c5.7,1.7,10.8,0.4,15.3-3.2c2.2-1.8,4.2-3.7,6-5.8c2.3-2.7,4.5-5.6,6.5-8.6c5.2-7.6,10.3-15.3,15.2-23
			c1-1.5,1.6-3.4,1.7-5.1c0.2-3.4-0.1-6.8-0.3-10.3c-0.1-1.2-0.4-2.3-0.6-3.5c-9.3,3-16.7-1-24.3-6.1c0.3,1,0.5,1.4,0.6,1.9
			c1.1,4.2,2.3,8.3,3.2,12.5c0.6,2.5,0.7,5.1-0.1,7.6c-1.1,3.5-3.5,4.5-6.6,2.5C517.1,345.4,515.8,344.2,514,342.8z M550.2,340.7
			c1.2,0.7,2.4,1.4,3.7,2.1c2.1,1.2,2.2,1.2,1.8,3.6c-0.7,5-0.8,10-0.3,15.1c0.3,3.8,1.1,7.4,2.9,10.8c2.1,4.1,5.4,6.8,10.1,7.2
			c4.4,0.4,8.6-0.4,12.5-2.7c2.5-1.5,4.2-3.7,4.7-6.6c0.3-2,0.5-4.2,0.2-6.2c-0.3-2.4-1.1-4.7-1.8-6.9c-0.8-2.4-0.6-2.7,1.9-3
			c1-0.1,1.9-0.2,2.9-0.4c4.7-0.8,9.2-2.1,13.2-4.7c3.9-2.5,6.4-6,7-10.6c0.5-3.7-0.1-7.3-1.6-10.8c-1.6-3.7-4.4-6-8.3-6.9
			c-4.8-1.1-9.5-0.5-14.2,0.7c-7.5,1.9-14.5,4.9-21.2,8.7c-1.9,1.1-3.3,1-5-0.1c-2.4-1.6-5-2.9-7.5-4.3c-0.3-0.2-0.6-0.2-1-0.3
			c-0.5,0.5-1.1,0.9-1.4,1.2C549.3,331.2,549.7,335.8,550.2,340.7z M414.4,332.1c-3-1.4-5.8-2.7-8.6-4c-1,0.6-2.2,1.2-3.2,1.9
			c-1.4,1-2.6,1-4.1,0.1c-5.8-3.3-11.8-5.9-18.2-7.9c-4.6-1.4-9.3-2.4-14.1-2.2c-6.8,0.3-11.2,3.8-12.9,10.4
			c-0.1,0.5-0.3,0.9-0.3,1.4c-1.6,8.3,1.4,14.6,9,18.4c2.1,1,4.3,1.9,6.5,2.4c2.6,0.7,5.3,1,8,1.4c1.7,0.3,2,0.8,1.5,2.4
			c-0.1,0.4-0.3,0.7-0.4,1.1c-1.2,3.4-2,6.9-1.7,10.6c0.3,4.1,2.3,7.2,6,9.1c3,1.5,6.2,2.1,9.5,2.2c5.3,0.1,9.5-2.1,11.9-7
			c1.1-2.1,1.9-4.4,2.4-6.7c1.5-6.6,1.2-13.3,0.4-20c-0.2-1.3,0.2-2.1,1.3-2.7c1.9-1,3.8-2.1,5.7-3.1c0.7-0.4,1.1-0.8,1.1-1.6
			C414.1,336.2,414.3,334.1,414.4,332.1z M395.1,261.8c-1.8-6.9-1.8-13.7-0.5-20.4s3.6-13,6.9-19c-2.5-3.2-5.1-6.2-8.6-8.1
			c-2.7-1.5-5.4-1.6-8.2-0.2c-4.4,2.3-7.1,5.8-8.3,10.6c-1,4-0.9,8.1-0.2,12.1c0.6,3.1,0.4,3.2-2.6,3.6c-2.8,0.4-5.7,0.9-8.5,1.6
			c-3.1,0.8-6,2.2-8.5,4.2c-7.1,5.5-4.3,17.9,3.3,20.4c2.5,0.8,4.9,1.3,7.5,1.3C377,267.9,385.9,265,395.1,261.8z M565.5,261.4
			c3.3,1.1,6.4,2.2,9.5,3.1c6.8,2,13.6,3.6,20.7,3.1c2.3-0.2,4.6-0.7,6.7-1.5c7-2.6,9.1-14.2,3.5-19.2c-2.1-1.9-4.4-3.2-6.9-4.2
			c-3.8-1.4-7.7-2.2-11.7-2.5c-2.2-0.2-2.5-0.6-2-2.7c0.8-3.9,1-7.8,0.2-11.7c-1-5.1-3.6-9.1-8.3-11.7c-2.9-1.6-5.8-1.5-8.7,0.1
			c-3.2,1.8-5.6,4.4-7.8,7.2C567.3,234.2,570.5,247.2,565.5,261.4z"/>
		<path class="st1" d="M121.1,384.5c-0.2,0.1-0.4,0.2-0.7,0.3c0-4.2,0-8.3,0-12.5c0.3-0.7,0.7-1.4,0.8-2.2c1.4-9,5.3-16.9,10.2-24.3
			c6.3-9.4,14-17.7,22.2-25.4c17.2-16.2,36.1-30.1,55.7-43.2c17.3-11.5,34.7-22.8,52.1-34.3c11.4-7.5,22-16.2,32.6-24.8
			c17-14,33.8-28.1,51-41.9c15.2-12.3,30.6-24.4,46.2-36.3c14-10.7,28.6-20.7,43.9-29.6c9.2-5.3,18.6-10.3,28.8-13.6
			c3.3-1.1,6.8-1.8,10.2-2.6c0.5-0.1,1-0.4,1.5-0.6c3,0,6.1,0,9.1,0c1.1,0.2,2.1,0.5,3.2,0.7c8.1,1.5,15.7,4.4,23.1,7.9
			c12.5,5.9,24.2,13.3,35.7,21c16.4,11,32.3,22.8,47.6,35.2c23.3,18.9,46.6,37.8,69.6,57c18.8,15.6,38.7,29.7,59.2,42.8
			c14.9,9.5,29.6,19.4,44,29.5c15.9,11.1,31.1,23.1,44.8,36.8c7.8,7.8,15.1,16.1,20.7,25.7c3.5,5.9,6.1,12.1,7.4,18.9
			c0.2,1.3,0.3,2.5,0.4,3.8c-0.1,0.7-0.1,1.4-0.2,2.1c-0.4-1.5-0.8-3.1-1.2-4.6c-2.5-8.6-7.1-16-12.5-23
			c-8.2-10.5-17.8-19.4-28-27.9c-16.6-13.7-34.4-25.8-52.6-37.4c-14.6-9.3-29.2-18.4-43.8-27.6c-14.7-9.2-28.2-19.9-41.7-30.7
			c-24.5-19.4-48.9-39-73.6-58.2c-17.4-13.6-35.4-26.4-54.2-37.9c-10.1-6.2-20.4-12-31.5-16.2c-4.3-1.6-8.8-3-13.3-4
			c-6.4-1.5-12.9-0.7-19.2,1.1c-9.4,2.7-18.1,6.8-26.6,11.4c-16.1,8.8-31.3,19-46.1,29.7C373,166,351,183.6,329,201.2
			c-16.7,13.3-33.4,26.6-50.3,39.7c-11.6,9-24.2,16.5-36.6,24.2c-19.4,12.1-38.8,24.2-57.4,37.5c-13.1,9.4-25.9,19.3-37.4,30.7
			c-8.2,8.1-15.6,16.7-21,27c-2.6,4.9-4.4,10.1-5.2,15.6C120.8,378.9,120.1,381.7,121.1,384.5z"/>
		<path class="st2" d="M841,383.4h-0.2h-0.2c0-2.8-0.1-5.6-0.1-8.4c0.1-0.7,0.1-1.4,0.2-2.1c0.1,0,0.2,0,0.3,0
			C841,376.4,841,379.9,841,383.4z"/>
		<path class="st2" d="M494.4,353.4c-0.5-1.4-1.1-2.5-1.4-3.7c-0.5-2.4-0.9-4.9-1.3-7.3c-0.1-0.4-0.1-0.8-0.1-1.2
			c-0.1-0.9-0.5-1.5-1.5-1.6c-1,0-1.4,0.5-1.5,1.5c-0.3,1.8-0.5,3.6-0.9,5.4c-0.4,1.9-1,3.7-1.6,5.5c-0.3,0.8-0.9,1.4-1.6,2.6
			c-0.8-1.7-1.6-3-1.9-4.3c-0.7-2.7-1.2-5.5-1.8-8.2c-0.2-1,0-2.5-1.6-2.5c-1.6-0.1-1.5,1.3-1.8,2.4c-1.1,3.5-2,7.1-3.2,10.5
			c-0.9,2.5-1.5,3.2-3.1,4.5c-1.2-0.5-1.8-1.6-2.1-2.7c-0.9-3.2-1.7-6.5-2.3-9.8c-0.4-1.8-0.4-3.7-0.6-5.5c-0.1-0.5-0.1-1-0.3-1.4
			c-0.5-1-1.9-1.1-2.5,0c-0.3,0.5-0.3,1.1-0.5,1.6c-1.1,3.7-2.2,7.3-3.4,11c-0.5,1.6-1.3,3.1-2.9,4.1c-1.2-0.5-1.6-1.6-1.9-2.6
			c-0.7-2.9-1.3-5.7-1.9-8.6c-0.3-1.7-0.4-3.5-0.5-5.3c-0.1-1-0.4-1.8-1.5-1.8s-1.4,0.8-1.6,1.7c-0.4,2.4-0.8,4.9-1.3,7.3
			c-0.3,1.3-0.9,2.5-1.6,4.3c-0.8-1.2-1.5-1.9-1.7-2.6c-0.5-1.7-0.9-3.4-1-5.2c-0.5-6.7,0.2-13.4,1.1-20.1c0-0.3,0.3-0.7,0.2-0.9
			c-0.2-0.6-0.4-1.5-0.9-1.7s-1.3,0.1-1.8,0.5c-0.6,0.4-0.9,1.1-1.3,1.7c-5.1,6.1-11.4,9.7-19.6,9.2c-4.7-0.3-9.1-1.8-13-4.4
			c-4.4-2.9-6.3-7.2-5.6-12.4c0.5-3.8,1.6-7.5,2.4-11.2c0.6-2.9,1.4-5.8,1.7-8.7c0.2-1.9-0.2-4-0.7-5.9c-0.7-2.7-1.8-5.3-2.7-8.1
			c4.8-0.9,9.5-1.8,14.2-2.6c4.5,8.5,11.1,14.9,18.7,20.3c3.2,2.3,6.7,4.1,10.4,5.3c7.3,2.4,13.5,0.7,18.6-5.1
			c4.9-5.5,7.8-12,10-18.9c1.9-6.1,3.1-12.2,2.3-18.7c27.9-10,55.2-21,81.8-34.2c2.3,4.3,3.7,8.8,4.7,13.4c1.7,7.7,1,15.2-1.7,22.6
			c-2.5,6.6-4.7,13.2-7.1,19.8c-0.3,0.8-0.5,1.7-0.8,2.5c-1.2,3.6-1.1,7.2-0.1,10.8c0.8,2.8,1.5,5.7,2.1,8.6s0.3,5.7-0.6,8.5
			c-1.5,4.4-4.1,8.1-7.7,11.1c-3.6,3-7.7,3.6-12.2,2.7c-5.3-1.2-9.7-4-13.9-7.3c-0.9-0.8-1.8-1.6-2.7-2.4c-0.8-0.7-1.5-1.6-2.7-0.8
			c-1.1,0.8-0.4,1.9-0.1,2.8c1.6,4.8,3.4,9.6,4.8,14.5c0.8,2.7,1,5.5,1.2,8.3c0.1,1.1-0.4,2.3-0.7,3.8c-1.2-0.6-2.1-0.9-2.8-1.5
			c-1.6-1.4-3.1-2.9-4.7-4.4c-0.5-0.4-0.8-1-1.3-1.4c-1.1-0.8-2.3-0.3-2.4,1.1c-0.1,1.3,0.2,2.6,0.1,3.8c-0.1,2.4-0.3,4.8-0.4,7.2
			c0,0.4-0.4,0.8-0.6,1.3c-1.5-0.1-2.4-1-3.3-1.9c-2-2.3-3.9-4.6-5.9-7c-0.4-0.4-0.6-1-1-1.3c-0.5-0.3-1.3-0.7-1.9-0.6
			c-0.4,0.1-0.9,0.9-0.9,1.4c-0.3,2.2-0.3,4.5-0.6,6.7C496.1,349.7,495.9,351.5,494.4,353.4z M514.3,265.7c-0.6-0.8-1-1.4-1.4-1.9
			c-3.3-4.1-8.8-5.7-13.8-3.8c-5.1,1.9-7.9,6.3-7.6,11.8c0.1,2.4,0.8,4.5,1.9,6.6c1.5,3,3.5,5.8,6,8c4,3.6,8.3,7,12.4,10.5
			c0.8,0.7,1.6,1.2,2.5,1.9c5.3-4.1,10.6-7.9,15.1-12.7c2-2.1,3.7-4.4,5.2-6.9c1.1-2,2-4.2,2.3-6.5c1.4-9.7-7.3-14.5-13.5-13.5
			C519.4,260,516.4,262,514.3,265.7z M483.1,300.5c-3.6,3.2-7,6.1-10.2,9.2c-1.9,1.8-3.1,4-3.7,6.6c-1.1,4.8,2.3,9,7.2,9.1
			c3,0,5.1-1.5,6.7-3.9c0.3,0.4,0.5,0.6,0.7,0.9c2.7,3.2,6.5,3.9,9.9,2c3.2-1.8,4.4-5.5,3-9.4c-0.9-2.4-2.2-4.5-4.1-6.1
			C489.7,306.1,486.6,303.5,483.1,300.5z"/>
		<path class="st3" d="M556.9,221.5c-1.9,1-3.8,1.9-5.6,2.8c-24.9,11.9-50.3,22.3-76.4,31.4c-0.9,0.3-1.9,0.6-2.8,0.4
			c-4.4-0.8-8.8-0.4-13.1,0.1c-10.5,1.3-20.7,4.1-30.3,8.4c-3.8,1.7-7.5,3.6-10.4,6.8c-0.3,0.3-0.8,0.6-1.2,0.6c-5,1-10,2-15.1,3
			c-0.3-0.8-0.6-1.3-0.7-1.9c-1.2-4.8-2.6-9.6-3.7-14.4c-1.6-7.2-0.8-14.3,1.1-21.3c4.8-17.6,16-29.9,32.1-37.9
			c8.7-4.3,17.9-6.7,27.4-8.2c10.9-1.7,21.8-1.9,32.8-1.3c14.1,0.8,27.9,3.3,40.8,9.5c9.5,4.6,17.7,10.9,23.8,19.6
			c0.4,0.5,0.7,1.1,1.1,1.6C556.7,220.9,556.8,221.1,556.9,221.5z"/>
		<path class="st2" d="M514,342.8c1.8,1.4,3.1,2.6,4.6,3.5c3.1,1.9,5.6,0.9,6.6-2.5c0.8-2.5,0.7-5.1,0.1-7.6
			c-0.9-4.2-2.1-8.3-3.2-12.5c-0.1-0.5-0.3-0.9-0.6-1.9c7.5,5.1,14.9,9.1,24.3,6.1c0.2,1.2,0.5,2.4,0.6,3.5
			c0.2,3.4,0.4,6.9,0.3,10.3c-0.1,1.8-0.7,3.7-1.7,5.1c-5,7.7-10.1,15.4-15.2,23c-2,3-4.2,5.9-6.5,8.6c-1.8,2.1-3.9,4.1-6,5.8
			c-4.5,3.7-9.6,5-15.3,3.2c-4.7-1.4-9.5-2.9-14.2-4.3c-1.5-0.4-2.9-0.8-4.4-1.2c-3.6-0.9-7.2-0.5-10.6,0.6
			c-4.4,1.4-8.8,2.9-13.2,4.3c-2.6,0.8-5.2,1.4-7.9,2c-3.2,0.7-6.2,0-8.8-1.9c-2.8-2-5.2-4.6-6.9-7.5c-3-5.2-5.8-10.5-8.7-15.7
			c-2.9-5.3-5.7-10.7-8.5-16.1c-0.5-1-0.9-2-1.2-3.1c-0.9-3.9-0.4-7.7-0.1-11.8c9.2,1.5,16.9-0.9,23.6-7.5c-0.2,3-0.4,5.4-0.6,7.9
			c-0.3,4.3-0.3,8.6,0.7,12.9c0.3,1.2,0.8,2.5,1.5,3.5c2,3,5,2.9,6.8-0.2c0.2-0.3,0.4-0.7,0.7-1.3c0.2,0.6,0.4,1.1,0.6,1.5
			c0.7,1.8,1.1,3.7,2.1,5.3c1.7,3,4.8,3.2,6.9,0.5c1.3-1.7,2.1-3.7,3.1-5.6c0.4-0.7,0.6-1.4,1.1-2.5c0.6,2.3,0.9,4.1,1.5,5.9
			c0.3,1.1,0.8,2.3,1.3,3.3c2.3,4.4,5.9,4.7,8.6,0.5c1-1.5,1.7-3.3,2.4-4.9c0.4-0.9,0.7-1.9,1.2-3.2c0.7,1.8,1.1,3.3,1.8,4.8
			c0.8,1.8,1.8,3.5,4.1,3.5c2.3,0,3.2-1.8,4-3.6c0.4-0.9,0.7-1.8,1.2-2.9c0.3,0.7,0.5,1.3,0.8,1.8c0.4,0.8,0.8,1.8,1.4,2.5
			c1.5,1.9,4,1.9,5.2-0.2c0.9-1.6,1.4-3.5,1.9-5.4c0.3-1.1,0.4-2.2,0.6-3.6c0.8,0.9,1.3,1.6,1.9,2.1c1.8,1.7,3.5,3.6,5.5,4.9
			c2.8,1.9,5.2,0.9,6.1-2.3c0.5-1.7,0.6-3.6,0.8-5.4C514.1,344.4,514,343.8,514,342.8z"/>
		<path class="st2" d="M550.2,340.7c-0.5-4.9-0.9-9.5-1.3-14.4c0.3-0.3,0.9-0.7,1.4-1.2c0.4,0.1,0.7,0.2,1,0.3
			c2.5,1.4,5.1,2.8,7.5,4.3c1.7,1.1,3.1,1.2,5,0.1c6.7-3.8,13.7-6.8,21.2-8.7c4.7-1.2,9.4-1.9,14.2-0.7c3.9,0.9,6.7,3.2,8.3,6.9
			c1.5,3.4,2,7.1,1.6,10.8c-0.6,4.7-3.1,8.1-7,10.6c-4,2.6-8.5,3.9-13.2,4.7c-0.9,0.2-1.9,0.3-2.9,0.4c-2.6,0.3-2.7,0.6-1.9,3
			c0.7,2.3,1.5,4.6,1.8,6.9c0.3,2,0.1,4.2-0.2,6.2c-0.5,2.9-2.2,5.1-4.7,6.6c-3.8,2.3-8.1,3-12.5,2.7c-4.7-0.4-8-3-10.1-7.2
			c-1.7-3.4-2.5-7.1-2.9-10.8c-0.5-5-0.4-10.1,0.3-15.1c0.3-2.3,0.3-2.4-1.8-3.6C552.6,342,551.4,341.3,550.2,340.7z"/>
		<path class="st2" d="M414.4,332.1c-0.1,2-0.3,4.1-0.4,6.1c0,0.9-0.5,1.3-1.1,1.6c-1.9,1-3.7,2.1-5.7,3.1c-1.2,0.6-1.5,1.4-1.3,2.7
			c0.9,6.7,1.1,13.4-0.4,20c-0.5,2.3-1.3,4.6-2.4,6.7c-2.4,4.8-6.5,7.1-11.9,7c-3.3-0.1-6.5-0.7-9.5-2.2c-3.7-1.9-5.7-5-6-9.1
			c-0.3-3.7,0.4-7.2,1.7-10.6c0.1-0.4,0.3-0.7,0.4-1.1c0.6-1.6,0.2-2.1-1.5-2.4c-2.7-0.4-5.4-0.8-8-1.4c-2.2-0.6-4.4-1.4-6.5-2.4
			c-7.6-3.8-10.6-10-9-18.4c0.1-0.5,0.2-0.9,0.3-1.4c1.7-6.6,6-10.1,12.9-10.4c4.9-0.2,9.5,0.8,14.1,2.2c6.4,2,12.4,4.6,18.2,7.9
			c1.5,0.9,2.7,0.9,4.1-0.1c1-0.7,2.2-1.3,3.2-1.9C408.6,329.4,411.3,330.7,414.4,332.1z"/>
		<path class="st2" d="M395.1,261.8c-9.2,3.3-18.2,6.1-27.8,6c-2.6,0-5.1-0.5-7.5-1.3c-7.6-2.5-10.3-14.9-3.3-20.4
			c2.6-2,5.4-3.4,8.5-4.2c2.8-0.7,5.6-1.2,8.5-1.6c3-0.4,3.2-0.5,2.6-3.6c-0.8-4.1-0.9-8.1,0.2-12.1c1.2-4.7,3.9-8.3,8.3-10.6
			c2.8-1.4,5.5-1.3,8.2,0.2c3.5,1.9,6.1,4.9,8.6,8.1c-3.3,6-5.6,12.3-6.9,19C393.3,248.1,393.3,254.8,395.1,261.8z"/>
		<path class="st2" d="M565.5,261.4c5-14.3,1.8-27.2-4.7-40c2.2-2.8,4.6-5.4,7.8-7.2c2.9-1.6,5.7-1.7,8.7-0.1
			c4.7,2.5,7.3,6.5,8.3,11.7c0.8,3.9,0.5,7.8-0.2,11.7c-0.4,2.1-0.2,2.5,2,2.7c4,0.3,7.9,1.1,11.7,2.5c2.6,1,4.9,2.3,6.9,4.2
			c5.6,5.1,3.5,16.6-3.5,19.2c-2.1,0.8-4.5,1.3-6.7,1.5c-7.1,0.5-14-1.1-20.7-3.1C571.9,263.7,568.8,262.5,565.5,261.4z"/>
		<path class="st0" d="M514.3,265.7c2.2-3.7,5.2-5.7,9.1-6.4c6.2-1,14.9,3.8,13.5,13.5c-0.3,2.2-1.2,4.5-2.3,6.5
			c-1.4,2.5-3.2,4.8-5.2,6.9c-4.5,4.8-9.8,8.6-15.1,12.7c-0.9-0.7-1.7-1.2-2.5-1.9c-4.2-3.5-8.4-6.9-12.4-10.5c-2.5-2.2-4.5-5-6-8
			c-1.1-2.1-1.8-4.3-1.9-6.6c-0.3-5.5,2.6-9.9,7.6-11.8s10.5-0.4,13.8,3.8C513.3,264.3,513.7,264.9,514.3,265.7z"/>
		<path class="st0" d="M483.1,300.5c3.4,3,6.6,5.6,9.6,8.3c1.8,1.7,3.2,3.8,4.1,6.1c1.4,3.9,0.2,7.5-3,9.4c-3.4,1.9-7.2,1.2-9.9-2
			c-0.2-0.2-0.4-0.5-0.7-0.9c-1.7,2.4-3.8,3.9-6.7,3.9c-4.9,0-8.3-4.3-7.2-9.1c0.6-2.6,1.8-4.8,3.7-6.6
			C476.1,306.6,479.5,303.7,483.1,300.5z"/>
	</g>
</g>
</svg>
