<svg id="Layer_1" data-name="Layer 1" xmlns="http://www.w3.org/2000/svg" viewBox="0 0 40.7 26.92"><defs><style>.cls-1{fill:#3b2314;}.cls-2{fill:#f2f2f2;}.cls-3{fill:#d91c5c;}</style></defs><title>mouth2</title><path class="cls-1" d="M55.3,35.1a12,12,0,0,0-4.1-9.2l-2.9,6.9-5.3-2,2.3-8A34.56,34.56,0,0,0,35,21.7a40.41,40.41,0,0,0-10.2,1.6l1.3,8.5-5.6.7-1.8-6.1a10.83,10.83,0,0,0-4.1,8.7c0,3.5,2,6.6,5.3,9,2.6-2.3,9.6-7.8,14.7-4,0,0,7.1-4.5,15.1,4.2C53.2,42,55.3,38.7,55.3,35.1Z" transform="translate(-14.6 -21.68)"/><path class="cls-2" d="M26,31.8l-1.3-8.5a17.44,17.44,0,0,0-6.1,3.1l1.8,6.1Z" transform="translate(-14.6 -21.68)"/><path class="cls-2" d="M48.3,32.8l2.9-6.9a15.44,15.44,0,0,0-6-3.1l-2.3,8Z" transform="translate(-14.6 -21.68)"/><path class="cls-3" d="M34.5,40.2c-5.1-3.8-12.1,1.7-14.7,4,3.7,2.7,9.1,4.4,15.1,4.4a26.57,26.57,0,0,0,14.7-4.1C41.5,35.6,34.5,40.2,34.5,40.2Z" transform="translate(-14.6 -21.68)"/></svg>