<svg id="Layer_1" data-name="Layer 1" xmlns="http://www.w3.org/2000/svg" viewBox="0 0 36.7 27.5"><defs><style>.cls-1{fill:#3b2314;}.cls-2{fill:#f2f2f2;}</style></defs><title>mouth3</title><path class="cls-1" d="M49.9,22.2a0.31,0.31,0,0,1,.1.2l-4.5,8.4-3.8-9.5-3.8,9-3.9-9-4.4,9.2-3.8-9.2-3.6,9.6L18.8,23a6.94,6.94,0,0,0-2.1,5V41.7a7,7,0,0,0,3.1,5.8l3.6-9.3L27,47.8l3.8-9.2,4.4,9.2,3.9-9,3.8,9,3.8-9.5,4.5,8.4a7.26,7.26,0,0,0,2.2-5.1V28.2A7.58,7.58,0,0,0,49.9,22.2Z" transform="translate(-16.7 -21.3)"/><path class="cls-2" d="M25.8,21.4l3.8,9.2L34,21.4l3.9,9,3.8-9,3.8,9.5L50,22.5a0.31,0.31,0,0,0-.1-0.2,7.19,7.19,0,0,0-3.6-1H23.6a7.23,7.23,0,0,0-4.9,2l3.4,7.8Z" transform="translate(-16.7 -21.3)"/><path class="cls-2" d="M42.8,47.9l-3.8-9-3.9,9-4.4-9.2-3.8,9.2-3.6-9.6-3.6,9.3a6.67,6.67,0,0,0,3.9,1.2H46.3a6.72,6.72,0,0,0,4.8-1.9l-4.5-8.4Z" transform="translate(-16.7 -21.3)"/></svg>