<svg id="Layer_1" data-name="Layer 1" xmlns="http://www.w3.org/2000/svg" viewBox="0 0 42.8 24.4"><defs><style>.cls-1{fill:#3b2314;}.cls-2{fill:#f2f2f2;}.cls-3{fill:#d91c5c;}</style></defs><title>mouth4</title><path class="cls-1" d="M34.8,39.1s5.6-5.8,12.9,3.1c7.2-7.1,8.7-19.3,8.7-19.3H53c-3,10-7.9,4.8-7.9,4.8-3.2,3-6.7-.7-6.7-0.7-2.3,4.1-6.9,0-6.9,0-2.8,4.6-6.2-.5-6.2-0.5S25,29.3,21.7,29c-2-.1-3.3-3.6-4-6.2H13.6s2.1,11.9,9.4,19C26.1,39.1,31,35.4,34.8,39.1Z" transform="translate(-13.6 -22.8)"/><path class="cls-2" d="M21.9,29.2a3,3,0,0,0,3.5-2.5s3.5,5.1,6.2.5c0,0,4.6,4.1,6.9,0,0,0,3.5,3.7,6.7.7,0,0,5,5.1,7.9-4.8H17.9C18.6,25.6,19.9,29,21.9,29.2Z" transform="translate(-13.6 -22.8)"/><path class="cls-3" d="M47.7,42.2c-7.3-8.9-12.9-3.1-12.9-3.1-3.9-3.7-8.7,0-11.6,2.9a17.54,17.54,0,0,0,12.5,5.2A16.83,16.83,0,0,0,47.7,42.2Z" transform="translate(-13.6 -22.8)"/></svg>