<svg id="Layer_1" data-name="Layer 1" xmlns="http://www.w3.org/2000/svg" viewBox="0 0 49.9 21.67"><defs><style>.cls-1{fill:#3b2314;}.cls-2{fill:#d91c5c;}</style></defs><title>mouth1</title><path class="cls-1" d="M56.5,35.3a34.64,34.64,0,0,1-22,7.1H33.9a32.76,32.76,0,0,1-8.2-1.3,4.88,4.88,0,0,0-.3.7,35.09,35.09,0,0,0,8.5,1.4h0.6a35.37,35.37,0,0,0,23.8-8.3l-0.4-.6C57.6,34.5,57.1,34.9,56.5,35.3Z" transform="translate(-10 -30.4)"/><path class="cls-1" d="M14,34.6l-1.1-1.1-0.5.6a24.76,24.76,0,0,0,3.4,3,2.36,2.36,0,0,1,.5-0.5A29.86,29.86,0,0,1,14,34.6Z" transform="translate(-10 -30.4)"/><path class="cls-1" d="M12.7,33.2l0.2,0.2,2-2.6-0.6-.4L10,36.1l0.6,0.4L12.5,34l-0.3-.3Z" transform="translate(-10 -30.4)"/><path class="cls-1" d="M12.7,33.2l-0.6.5L12.4,34l0.5-.6A0.28,0.28,0,0,1,12.7,33.2Z" transform="translate(-10 -30.4)"/><path class="cls-1" d="M59.9,36.1l-3.1-4.7-0.6.4,1.6,2.5,0.3-.3,0.5,0.5-0.4.4,1.1,1.6Z" transform="translate(-10 -30.4)"/><path class="cls-1" d="M58.7,34.5L58.2,34l-0.3.3,0.4,0.6A1.2,1.2,0,0,1,58.7,34.5Z" transform="translate(-10 -30.4)"/><path class="cls-2" d="M16.8,44.7l-0.6-.4,3.5-4.7a27.91,27.91,0,0,1-4-2.5c-3.2,3.6-8.1,10.4-3.2,14C17.7,55,23,46.2,25.2,41.9A27.82,27.82,0,0,1,20.3,40Z" transform="translate(-10 -30.4)"/><path class="cls-1" d="M20.9,39.3l-0.4.6a27.82,27.82,0,0,0,4.9,1.9c0.1-.2.2-0.5,0.3-0.7A37.37,37.37,0,0,1,20.9,39.3Z" transform="translate(-10 -30.4)"/><path class="cls-1" d="M20.2,38.9a23.6,23.6,0,0,1-2.3-1.3c-0.6-.4-1.1-0.7-1.6-1.1a2.36,2.36,0,0,1-.5.5,27.91,27.91,0,0,0,4,2.5Z" transform="translate(-10 -30.4)"/><path class="cls-1" d="M16.3,44.3l0.6,0.4,3.6-4.8a4.88,4.88,0,0,0-.7-0.3Z" transform="translate(-10 -30.4)"/><path class="cls-1" d="M19.8,39.5a4.88,4.88,0,0,0,.7.3l0.4-.6a4.88,4.88,0,0,0-.7-0.3Z" transform="translate(-10 -30.4)"/></svg>