<svg id="Layer_1" data-name="Layer 1" xmlns="http://www.w3.org/2000/svg" viewBox="0 0 62.4 19.11"><defs><style>.cls-1{fill:#f2f2f2;}.cls-2{fill:#3b2314;}</style></defs><title>mouth6</title><path class="cls-1" d="M60,54.9s5.1,0.4,9.7-4.6l-5-8.2a55.68,55.68,0,0,1-8.6,3.8Z" transform="translate(-8.8 -35.8)"/><path class="cls-2" d="M39.8,47.9H39a48.36,48.36,0,0,1-20.4-4.2,26.86,26.86,0,0,1-5.1-2.9c-0.7-.5-1.1-0.8-1.4-1l-0.5.6c1.7,1.4,10.9,8.2,27.4,8.2h0.8a53.81,53.81,0,0,0,16.3-2.7l-0.3-.7A49,49,0,0,1,39.8,47.9Z" transform="translate(-8.8 -35.8)"/><path class="cls-2" d="M68.7,38.7a14.86,14.86,0,0,1-1.5,1.1,29.07,29.07,0,0,1-2.8,1.7l0.4,0.6a32.23,32.23,0,0,0,4.4-2.9Z" transform="translate(-8.8 -35.8)"/><path class="cls-2" d="M55.8,45.3L56.1,46a48.14,48.14,0,0,0,8.6-3.8l-0.4-.6A50.82,50.82,0,0,1,55.8,45.3Z" transform="translate(-8.8 -35.8)"/><path class="cls-2" d="M11.3,40.2h0l0.5-.5a1.24,1.24,0,0,0,.3.2l2.3-2.6-0.5-.5L8.8,42.6l0.5,0.5,2.3-2.6-0.3-.3h0Z" transform="translate(-8.8 -35.8)"/><path class="cls-2" d="M11.3,40.2h0Z" transform="translate(-8.8 -35.8)"/><path class="cls-2" d="M11.8,39.7l-0.5.5a1.24,1.24,0,0,0,.3.2l0.5-.6A0.77,0.77,0,0,0,11.8,39.7Z" transform="translate(-8.8 -35.8)"/><path class="cls-2" d="M69.6,38.9a3,3,0,0,1-.4.3l1.5,1.7,0.5-.5L67,35.8l-0.5.5,2.2,2.4a3,3,0,0,0,.4-0.3Z" transform="translate(-8.8 -35.8)"/><path class="cls-2" d="M69.6,38.9l-0.5-.6a3,3,0,0,1-.4.3l0.5,0.5Z" transform="translate(-8.8 -35.8)"/></svg>